<svg xmlns="http://www.w3.org/2000/svg" version="1.1" xmlns:xlink="http://www.w3.org/1999/xlink" width="1500" height="1500" viewBox="0 0 1500 1500"><rect width="1500" height="1500" x="0" y="0" id="background" stroke="transparent" fill="#000000"></rect><svg xml:space="preserve" width="1000" height="1000" data-version="2" data-id="lg_0nvRGCQG6Xw7ZPB3u1" viewBox="0 0 565 246" x="250" y="250"><rect width="100%" height="100%" fill="transparent"></rect><path d="M298.11 94.125v-56.5l2.48-18.08-.28-.06-5.7 17.01-23.45 50.28h-3.9l-20.85-44.63-7.46-22.66-.34.06 3 23.67v50.91h-11.3v-72.89l-1.58-11.86 13.22-1.13 24.8 53.11 3.11 14.69 3.11-14.69 24.23-51.98 12.77-1.13v85.88Z"></path><rect width="81.24" height="85.88" x="-40.62" y="-42.94" fill="none" rx="0" ry="0" transform="translate(269.85 51.69)"></rect><path d="M372.69 94.125h-11.87v-9.16l-5.31 6.33q-.96.74-2.2 1.41-1.24.68-2.52 1.22-1.27.54-2.54.85-1.27.31-2.34.31-4.24 0-8.11-1.33-3.87-1.33-6.78-3.9t-4.63-6.38q-1.73-3.82-1.73-8.79 0-5.25 2.12-9.12 2.12-3.87 5.43-6.45 3.3-2.57 7.37-3.84t7.97-1.27q3.22 0 5.67.34 2.46.34 4.16.79 1.97.51 3.44 1.13v-1.98q0-3.33-.39-5.98-.4-2.66-1.61-4.5-1.22-1.83-3.51-2.79-2.28-.96-6.07-.96-3.05 0-5.87.42-2.83.42-5.03.93-2.6.62-4.81 1.3l-4.06-7.57q2.48-1.13 5.65-2.03 2.71-.79 6.44-1.44 3.73-.65 8.25-.65 6.49 0 10.73 1.75t6.67 4.91q2.43 3.17 3.39 7.6.96 4.44.96 9.86v28.82Zm-11.87-30.12q-1.58-.22-3.39-.45-1.52-.17-3.5-.34t-4.12-.17q-3.17 0-5.8.62-2.62.62-4.54 2.01-1.92 1.38-3 3.59-1.07 2.2-1.07 5.36 0 2.55.85 4.64.84 2.09 2.31 3.61 1.47 1.53 3.48 2.35 2 .82 4.32.82 1.07 0 2.29-.31 1.21-.31 2.43-.82 1.21-.51 2.43-1.19 1.21-.68 2.29-1.36 2.54-1.63 5.02-3.72Z"></path><rect width="48.03" height="64.07" x="-24.02" y="-32.03" fill="none" rx="0" ry="0" transform="translate(349.18 63.55)"></rect><path d="M417.1 41.015q-5.2 0-8.99 1.95-3.78 1.95-6.27 5.28-2.48 3.33-3.67 7.85t-1.19 9.66q0 5.03 1.19 8.82 1.19 3.78 3.08 6.33 1.89 2.54 4.32 3.81 2.43 1.27 4.97 1.27 2.66 0 4.95-.9 2.29-.91 4.21-2.26 1.92-1.36 3.44-2.97 1.53-1.61 2.66-3.02v-35.82Zm8.7 53.11v-9.16l-5.37 6.39q-1.02.68-2.2 1.35-1.19.68-2.66 1.19-1.47.51-3.25.85-1.78.34-3.98.34-4.63 0-8.64-2.29-4.02-2.29-6.98-6.36-2.97-4.07-4.69-9.69-1.72-5.62-1.72-12.34 0-6.78 2.17-12.69 2.18-5.9 6.19-10.31 4.01-4.4 9.69-6.92 5.68-2.51 12.68-2.51h8.76V2.595l10.73 1.13v80.23l1.13 10.17Z"></path><rect width="51.35" height="92.49" x="-25.68" y="-46.24" fill="none" rx="0" ry="0" transform="translate(412.49 49.34)"></rect><path d="M268.16 142.165q-3.84-2.26-7.37-3.33-3.53-1.07-7.88-1.07-3.05 0-5.96.62t-5.14 2q-2.24 1.39-3.62 3.62-1.38 2.23-1.38 5.45 0 3.17 1.69 5.48 1.7 2.32 4.44 4.16 2.74 1.83 6.27 3.39 3.53 1.55 7.2 3.27 3.67 1.73 7.21 3.79 3.53 2.06 6.27 4.86 2.74 2.79 4.43 6.52 1.7 3.73 1.7 8.82 0 4.18-1.13 7.71-1.13 3.53-3.14 6.36-2 2.82-4.77 4.94-2.77 2.12-6.05 3.53-3.28 1.41-6.92 2.12-3.64.71-7.43.71-13.16-.23-22.94-6.28l5.14-8.47q1.13.73 2.97 1.67 1.84.93 4.1 1.78 2.26.84 4.8 1.41 2.54.56 5.14.56 3.5 0 6.86-.87 3.37-.88 5.99-2.71 2.63-1.84 4.24-4.67 1.61-2.82 1.61-6.72 0-3.67-1.69-6.41-1.7-2.74-4.44-4.92-2.74-2.17-6.27-3.92-3.53-1.76-7.2-3.51-3.68-1.75-7.21-3.67t-6.27-4.35q-2.74-2.43-4.43-5.57-1.7-3.13-1.7-7.37 0-5.48 2.26-9.69 2.26-4.21 5.96-7.09t8.39-4.38q4.69-1.5 9.55-1.5 12.03 0 22.2 6.78Z"></path><rect width="52.38" height="86.68" x="-26.19" y="-43.34" fill="none" rx="0" ry="0" transform="translate(250.33 172.28)"></rect><path d="M303.19 205.115h9.27q5.2 0 9.01-1.73 3.82-1.72 6.27-4.83 2.46-3.11 3.65-7.46 1.18-4.35 1.18-9.6 0-5.54-1.07-9.58t-2.94-6.67q-1.86-2.62-4.32-3.89-2.46-1.28-5.23-1.28-2.76 0-5.17.71-2.4.71-4.4 1.78-2.01 1.07-3.59 2.37t-2.66 2.49Zm-10.73 37.29v-90.4l10.73-1.13v9.94l5.37-7.18q1.64-.96 4.66-1.78 3.03-.82 7.43-.82 4.69 0 8.82 2.21 4.12 2.2 7.2 6.27 3.08 4.07 4.86 9.83 1.78 5.76 1.78 12.88 0 6.95-2.26 12.8-2.26 5.85-6.41 10.11-4.16 4.27-10.06 6.64-5.91 2.38-13.19 2.38h-8.2v28.25Z"></path><rect width="50.85" height="91.53" x="-25.43" y="-45.77" fill="none" rx="0" ry="0" transform="translate(318.38 197.14)"></rect><path d="M382.8 215.115q-6.27 0-11.44-2.46t-8.9-6.78q-3.73-4.32-5.79-10.23-2.06-5.9-2.06-12.74t1.98-12.68q1.97-5.85 5.65-10.12 3.67-4.26 8.89-6.66 5.23-2.41 11.67-2.41 6.27 0 11.47 2.41 5.2 2.4 8.93 6.66 3.73 4.27 5.82 10.12 2.09 5.84 2.09 12.68t-2.01 12.74q-2 5.91-5.68 10.23-3.67 4.32-8.92 6.78-5.26 2.46-11.7 2.46m17.57-30.68q0-4.58-.99-8.99-.98-4.4-3.13-7.88-2.15-3.47-5.54-5.62t-8.13-2.15q-4.52 0-7.8 1.87-3.28 1.86-5.37 4.97-2.09 3.11-3.08 7.06-.99 3.96-.99 8.14 0 4.57.99 8.98t3.11 7.85q2.12 3.45 5.48 5.57 3.36 2.12 8.11 2.12 4.46 0 7.74-1.87 3.28-1.86 5.42-4.94 2.15-3.08 3.17-7.03 1.01-3.96 1.01-8.08"></path><rect width="56.5" height="64.08" x="-28.25" y="-32.04" fill="none" rx="0" ry="0" transform="translate(383.36 183.57)"></rect><path d="M454.67 160.585q-2.26 0-4.46.91-2.21.9-4.24 2.43-2.03 1.52-3.84 3.56-1.81 2.03-3.34 4.29v42.38h-10.73v-62.15l10.73-1.13v12.71l5.65-9.89q.74-.45 1.84-.93 1.1-.48 2.51-.85 1.42-.37 3.03-.62 1.61-.26 3.3-.26 2.54 0 4.27.46 1.72.45 2.57.84l-.57 9.38q-.84-.28-2.54-.7-1.69-.43-4.18-.43"></path><rect width="33.9" height="63.28" x="-16.95" y="-31.64" fill="none" rx="0" ry="0" transform="translate(445.51 183.01)"></rect><path d="M489.64 192.905q0 3.73.43 6.24.42 2.52 1.24 4.07.82 1.56 2.03 2.21 1.22.65 2.8.65 1.24 0 2.26-.15 1.02-.14 1.75-.36.85-.23 1.53-.51l3.9 6.84q-.46.45-1.44.98-.99.54-2.35 1.05-1.35.51-3.08.85-1.72.34-3.7.34-5.08 0-8.25-1.87-3.16-1.86-4.91-5.08-1.75-3.22-2.35-7.49-.59-4.27-.59-9.12v-30.51h-8.48v-9.04h8.48v-11.81l10.45-6.27v18.08h19.21l-1.13 9.04h-17.8Z"></path><rect width="38.14" height="81.19" x="-19.07" y="-40.59" fill="none" rx="0" ry="0" transform="translate(490 175.02)"></rect><path d="M550.16 162.225q-1.02-.51-2.43-1.02-1.42-.5-2.94-.9-1.53-.39-3.08-.62-1.56-.23-2.97-.23-5.99 0-8.47 1.78-2.49 1.78-2.49 5.34 0 2.38 1.64 3.93 1.64 1.55 4.24 2.8 2.6 1.24 5.79 2.34 3.19 1.1 6.24 2.63 2.21 1.07 4.47 2.54t4.06 3.45q1.81 1.97 2.94 4.46t1.13 5.59q0 5.71-1.92 9.67-1.92 3.95-5.23 6.41-3.3 2.46-7.74 3.59-4.43 1.13-9.46 1.13-1.92 0-4.35-.37-2.43-.37-4.86-1.02t-4.63-1.55q-2.21-.91-3.68-1.92l3.73-7.46q1.36.68 3.22 1.27 1.87.59 3.85 1.05 1.97.45 3.92.7 1.95.26 3.48.26 2.6 0 5-.54t4.24-1.72q1.83-1.19 2.93-3.08 1.11-1.9 1.11-4.66 0-2.1-.88-3.68t-2.37-2.79q-1.5-1.22-3.48-2.24-1.98-1.01-4.18-1.94l-4.52-1.93q-2.32-.98-4.41-2.17-1.97-1.13-3.81-2.49-1.84-1.35-3.25-3.05-1.41-1.69-2.26-3.81-.85-2.12-.85-4.83 0-4.3 1.53-7.38 1.52-3.08 4.29-5t6.67-2.82q3.9-.91 8.59-.91 2.15 0 4.24.34 2.09.34 4.01.88t3.5 1.27q1.58.74 2.71 1.47Z"></path><rect width="41.87" height="64.08" x="-20.93" y="-32.04" fill="none" rx="0" ry="0" transform="translate(537.86 183.57)"></rect><circle r="84.15" fill="#000000" stroke="#ffffff" stroke-width="6" transform="translate(94.53 118.49)scale(1.0192)"></circle><path fill-rule="evenodd" d="M59.53 95.72h7.443v66.245H59.53zm48.035-3.405c5.009 0 9.074 4.109 9.074 9.173 0 5.062-4.064 9.172-9.074 9.172-5.006 0-9.067-4.11-9.067-9.172 0-5.065 4.06-9.173 9.067-9.173m-44.157-5.663v4.282h3.565l3.666 1.837h9.28l3.665-1.837h3.565v-4.282h-3.565l-3.666-1.727h-9.28l-3.665 1.727zm20.176 9.069h7.543v66.244h-7.543zm17.53-18.036-1.02 4.08 3.566.918 3.06 2.545 9.068 2.343 3.877-.919 3.565.818 1.02-4.08-3.566-.808-3.06-2.655-9.076-2.242-3.868.818zm23.338 18.449-18.036 63.8 7.23 2.031 18.045-63.699z"></path></svg></svg>