<?xml version="1.0" standalone="no"?>
<!DOCTYPE svg PUBLIC "-//W3C//DTD SVG 20010904//EN"
 "http://www.w3.org/TR/2001/REC-SVG-20010904/DTD/svg10.dtd">
<svg version="1.0" xmlns="http://www.w3.org/2000/svg"
 width="1635.000000pt" height="1635.000000pt" viewBox="0 0 1635.000000 1635.000000"
 preserveAspectRatio="xMidYMid meet">

<g transform="translate(0.000000,1635.000000) scale(0.100000,-0.100000)"
fill="#000000" stroke="none">
<path d="M7600 15779 c-149 -10 -492 -51 -715 -85 -514 -78 -1131 -252 -1633
-460 -712 -296 -1352 -675 -1933 -1145 -57 -46 -111 -91 -119 -99 -9 -8 -52
-46 -96 -85 -43 -38 -99 -88 -124 -110 -103 -92 -405 -402 -538 -553 -391
-444 -664 -824 -914 -1272 -85 -152 -254 -481 -283 -550 -10 -25 -36 -83 -57
-130 -88 -191 -196 -468 -258 -665 -178 -560 -277 -1030 -330 -1550 -25 -252
-50 -676 -50 -851 0 -259 43 -807 91 -1144 88 -625 283 -1296 550 -1887 38
-84 69 -155 69 -158 0 -21 206 -407 327 -615 149 -253 173 -288 173 -245 0 8
4 15 9 15 5 0 14 14 20 30 5 17 36 57 69 90 49 51 64 60 93 60 94 0 178 -88
165 -173 -12 -76 -153 -227 -213 -227 -12 0 -23 -2 -23 -5 0 -26 323 -445 342
-445 4 0 8 8 8 18 0 19 392 418 445 452 76 50 180 0 200 -97 12 -60 -24 -109
-239 -320 -113 -112 -218 -206 -239 -217 l-39 -18 23 -26 c131 -150 645 -672
661 -672 1 0 4 16 6 36 3 43 49 103 144 186 35 31 95 86 133 123 104 100 183
164 210 171 42 10 95 -6 132 -40 29 -27 36 -41 40 -82 7 -66 -11 -99 -84 -160
-32 -27 -85 -73 -119 -104 -215 -197 -284 -247 -318 -234 -37 14 -10 -16 70
-81 48 -39 103 -84 123 -100 216 -180 698 -515 881 -613 30 -16 109 -60 175
-97 135 -76 414 -220 490 -253 28 -11 82 -35 120 -52 39 -17 133 -56 210 -86
258 -101 353 -137 445 -165 41 -12 80 -26 85 -30 6 -3 26 -10 45 -13 19 -4 44
-11 55 -15 65 -28 424 -120 580 -151 33 -6 74 -15 90 -20 120 -36 645 -106
995 -132 226 -17 836 -17 1045 0 480 39 814 90 1210 184 369 87 629 168 968
302 93 36 172 66 177 66 6 0 58 23 117 51 60 28 134 62 166 75 72 31 412 205
487 249 30 18 75 44 100 57 98 53 233 138 425 268 13 8 49 33 81 55 121 81
443 326 529 402 50 43 106 91 125 107 125 102 508 477 670 655 586 646 1175
1600 1431 2321 11 30 26 69 33 85 21 44 51 130 111 315 80 249 100 319 145
520 23 102 48 208 55 235 52 191 122 725 150 1140 40 585 -12 1301 -139 1920
-87 418 -100 473 -187 750 -47 148 -172 499 -200 562 -10 23 -19 46 -19 51 0
20 -182 417 -265 578 -97 188 -224 412 -293 519 -143 221 -261 398 -306 457
-28 37 -91 122 -141 188 -49 66 -95 120 -101 120 -6 0 -33 -26 -60 -57 -134
-158 -197 -213 -244 -213 -71 0 -141 80 -139 161 0 24 3 52 7 61 4 10 63 76
130 148 l124 130 -158 168 c-174 186 -308 319 -435 434 l-85 76 -194 -209
c-106 -115 -209 -219 -227 -230 -76 -47 -180 -4 -204 85 -20 72 -3 99 172 288
88 95 176 188 195 206 19 18 34 36 34 41 0 11 -141 129 -299 249 l-135 102
-30 -37 c-16 -21 -73 -82 -125 -136 -102 -105 -129 -119 -196 -105 -49 10
-111 73 -117 120 -10 62 10 96 118 208 57 60 104 111 104 113 0 9 -184 123
-370 229 -169 96 -498 268 -514 268 -3 0 -54 23 -114 51 -59 28 -165 75 -237
104 -71 29 -148 61 -170 70 -59 26 -518 183 -605 207 -72 20 -174 45 -290 72
-30 7 -80 20 -110 29 -220 66 -767 148 -1215 182 -206 16 -724 18 -935 4z
m3987 -1014 c46 -27 67 -59 78 -115 8 -44 -4 -77 -46 -124 -103 -118 -263 -93
-300 46 -11 41 -11 51 6 88 10 22 34 55 53 72 72 63 139 73 209 33z m-423
-379 c44 -18 86 -75 93 -125 10 -75 -73 -188 -166 -228 -92 -39 -221 44 -221
141 0 50 18 81 87 149 77 75 135 93 207 63z m589 -411 c63 -43 90 -121 61
-177 -22 -42 -204 -235 -257 -270 -22 -16 -53 -28 -68 -28 -69 0 -130 47 -149
115 -20 72 -3 103 134 241 67 67 130 126 141 132 36 20 97 14 138 -13z m-1048
-34 c63 -29 95 -69 102 -129 4 -41 2 -57 -15 -84 -25 -40 -120 -136 -153 -154
-80 -44 -206 20 -225 115 -12 58 3 93 74 170 90 99 140 118 217 82z m-458
-472 c51 -32 83 -85 83 -139 0 -41 -6 -52 -63 -119 -78 -94 -135 -127 -203
-116 -61 9 -122 64 -131 117 -10 66 5 107 60 166 80 85 122 112 175 112 28 0
57 -8 79 -21z m887 -124 c55 -36 82 -130 52 -183 -23 -42 -256 -272 -296 -292
-35 -18 -46 -19 -84 -9 -55 14 -105 63 -113 112 -12 75 2 102 109 215 55 59
118 122 140 141 61 52 128 58 192 16z m1083 -123 c49 -27 78 -125 51 -176 -18
-34 -401 -431 -452 -468 -45 -32 -91 -36 -140 -13 -65 31 -97 138 -58 197 24
37 386 412 428 445 55 41 112 46 171 15z m-2459 -239 c47 -35 72 -81 72 -134
0 -45 -4 -53 -67 -125 -75 -86 -142 -134 -187 -134 -49 0 -110 36 -134 79 -32
57 -30 121 7 174 31 44 109 122 151 151 33 23 120 17 158 -11z m708 -285 c52
-35 80 -110 64 -168 -8 -28 -44 -70 -154 -178 -82 -81 -155 -144 -171 -148
-37 -9 -101 1 -131 21 -39 25 -67 98 -59 151 6 40 18 56 128 167 164 164 180
176 241 177 35 0 59 -6 82 -22z m2816 -128 c72 -20 121 -116 96 -187 -8 -22
-60 -85 -134 -162 -66 -69 -136 -143 -154 -164 -39 -45 -78 -67 -117 -67 -101
0 -177 139 -125 225 31 49 315 337 347 351 37 16 41 16 87 4z m-4054 -90 c76
-46 96 -152 45 -227 -33 -47 -129 -135 -172 -158 -40 -20 -66 -19 -118 6 -61
29 -93 80 -93 145 0 45 5 59 38 101 36 49 77 87 137 131 40 28 117 30 163 2z
m5029 -90 c68 -41 95 -158 51 -216 -55 -71 -173 -201 -197 -216 -37 -25 -98
-23 -137 4 -73 50 -90 143 -39 219 38 58 130 168 168 202 39 34 105 37 154 7z
m-2898 -24 c34 -18 61 -58 72 -105 6 -28 4 -46 -11 -76 -25 -51 -455 -486
-504 -509 -134 -63 -257 98 -167 220 35 48 448 457 476 473 29 15 101 13 134
-3z m-1553 -358 c21 -20 39 -51 44 -74 17 -73 2 -98 -147 -245 -76 -75 -149
-144 -163 -153 -56 -37 -150 -9 -190 56 -23 38 -27 120 -7 155 14 24 271 273
302 292 11 6 43 10 73 8 45 -3 59 -9 88 -39z m-1125 -34 c14 -7 40 -29 58 -49
25 -29 31 -44 31 -81 0 -67 -21 -105 -104 -188 -55 -54 -87 -78 -116 -86 -129
-35 -240 97 -186 223 17 40 153 172 197 192 36 15 76 12 120 -11z m3969 -126
c62 -43 84 -114 56 -183 -16 -38 -311 -344 -363 -376 -39 -24 -97 -22 -138 5
-29 19 -65 85 -65 118 0 69 20 99 178 260 86 88 173 168 192 179 48 25 100 24
140 -3z m1082 -56 c32 -19 78 -99 78 -136 0 -45 -35 -97 -143 -211 l-105 -110
-60 0 c-51 0 -65 4 -87 25 -58 54 -71 129 -36 198 22 44 183 217 226 244 34
21 81 17 127 -10z m843 -31 c64 -36 93 -139 61 -214 -7 -18 -37 -56 -67 -84
-44 -44 -60 -53 -89 -53 -82 0 -159 81 -160 167 0 53 12 86 52 136 57 71 130
89 203 48z m-4118 -280 c44 -20 61 -44 74 -101 17 -76 2 -98 -240 -343 -124
-125 -246 -241 -270 -258 -73 -48 -141 -35 -191 38 -29 42 -32 119 -6 158 10
14 125 134 257 265 274 273 287 281 376 241z m-2324 -25 c40 -16 81 -64 97
-110 21 -65 0 -110 -99 -207 -105 -105 -144 -122 -216 -95 -99 38 -131 151
-72 249 22 36 135 144 172 165 27 16 79 15 118 -2z m953 -105 c31 -14 45 -28
57 -60 39 -96 20 -138 -125 -279 -164 -161 -170 -164 -245 -160 -53 3 -67 9
-93 33 -36 34 -50 79 -43 135 7 47 23 66 205 239 112 107 118 111 160 111 23
0 61 -9 84 -19z m5140 -33 c95 -84 80 -212 -37 -312 -57 -48 -96 -55 -156 -25
-63 31 -93 77 -93 141 0 63 19 99 88 171 54 55 58 57 109 57 45 0 58 -5 89
-32z m-1066 -146 c22 -12 44 -35 58 -62 45 -89 28 -130 -115 -277 -122 -126
-160 -146 -232 -124 -77 23 -120 119 -91 200 13 36 203 244 244 268 31 18 96
16 136 -5z m-1226 -32 c77 -37 107 -122 72 -203 -15 -35 -332 -358 -381 -388
-61 -38 -143 -12 -182 57 -28 48 -29 93 -4 143 24 47 355 378 396 397 40 18
52 17 99 -6z m-4325 -227 c67 -51 90 -137 53 -209 -24 -48 -155 -175 -199
-193 -61 -25 -153 21 -187 93 -22 47 -20 89 8 144 26 52 141 160 190 179 40
16 103 9 135 -14z m6195 -37 c47 -20 79 -69 84 -132 7 -86 -53 -175 -156 -228
-52 -27 -107 -13 -159 39 -43 42 -50 65 -44 135 5 55 65 139 131 183 30 21 99
22 144 3z m-5402 -212 c56 -39 76 -130 44 -192 -23 -43 -267 -278 -313 -302
-37 -19 -47 -20 -77 -10 -45 15 -83 45 -101 80 -21 41 -19 116 5 154 23 38
239 249 290 284 43 29 96 24 152 -14z m1143 -113 c65 -37 84 -146 36 -207 -13
-16 -135 -138 -271 -271 -275 -267 -283 -273 -357 -237 -53 27 -83 75 -83 136
0 79 -1 78 297 370 244 239 285 262 378 209z m3023 -11 c36 -22 71 -88 72
-133 0 -54 -30 -98 -145 -212 -129 -127 -161 -145 -231 -126 -90 24 -137 119
-100 204 13 32 224 253 261 275 32 18 106 14 143 -8z m826 -130 c45 -29 76
-87 76 -142 0 -92 -120 -225 -212 -235 -50 -4 -108 24 -142 70 -30 40 -29 129
2 182 23 38 95 109 136 132 33 19 107 16 140 -7z m-6334 -28 c61 -45 87 -127
61 -194 -13 -35 -125 -152 -179 -188 -40 -27 -53 -31 -90 -26 -62 8 -99 31
-122 76 -25 48 -26 126 -4 160 31 46 159 172 189 186 38 18 111 11 145 -14z
m4133 14 c43 -17 85 -68 93 -111 13 -70 -7 -99 -210 -301 -203 -202 -233 -222
-301 -210 -67 13 -123 112 -109 194 5 32 33 63 192 221 103 101 201 193 217
203 36 21 74 23 118 4z m-3478 -430 c46 -47 60 -90 48 -147 -5 -26 -36 -64
-137 -165 -72 -73 -147 -141 -166 -153 -67 -40 -145 -19 -188 50 -65 106 -34
167 190 370 l98 89 57 0 c54 0 58 -2 98 -44z m5212 -27 c73 -35 115 -120 94
-190 -15 -50 -89 -139 -147 -178 -86 -57 -175 -34 -221 59 -44 86 -26 148 70
241 93 90 131 103 204 68z m-986 -42 c59 -39 85 -123 59 -191 -12 -32 -222
-246 -270 -275 -86 -52 -196 -1 -215 100 -14 74 6 108 138 238 67 66 131 127
142 135 31 24 106 20 146 -7z m-5440 -50 c73 -49 102 -144 65 -215 -16 -32
-133 -143 -188 -179 -116 -78 -262 72 -204 210 15 37 142 164 189 190 44 24
97 22 138 -6z m2094 -217 c60 -37 82 -126 49 -196 -9 -19 -98 -112 -198 -206
-99 -95 -206 -196 -236 -224 -30 -29 -68 -63 -83 -75 -73 -56 -171 -36 -207
43 -23 50 -24 60 -9 113 9 32 47 74 198 223 216 214 316 305 357 327 40 21 91
19 129 -5z m1843 6 c49 -26 75 -62 80 -114 7 -79 8 -78 -250 -329 -75 -72
-155 -145 -178 -162 -70 -50 -142 -39 -187 28 -30 44 -31 122 -3 169 23 37
336 350 394 393 44 33 99 38 144 15z m2034 -201 c41 -28 78 -96 78 -144 0 -45
-24 -86 -89 -154 -71 -75 -120 -101 -177 -94 -84 9 -134 72 -134 167 0 67 20
100 112 185 68 63 72 65 122 65 38 0 61 -6 88 -25z m-6560 -105 c25 0 89 -59
104 -97 18 -42 18 -82 0 -124 -17 -40 -146 -168 -195 -194 -88 -45 -211 42
-211 150 0 57 23 95 103 173 78 75 128 105 162 97 11 -3 28 -5 37 -5z m1082
-21 c33 -19 76 -87 76 -120 0 -57 -26 -97 -138 -212 -131 -133 -181 -168 -242
-169 -96 -1 -163 107 -130 207 21 63 257 293 315 308 44 11 86 6 119 -14z
m4318 -88 c40 -45 54 -101 38 -153 -10 -34 -36 -66 -132 -158 -168 -161 -203
-179 -282 -146 -66 28 -98 104 -76 185 8 32 37 67 139 170 71 72 139 132 152
135 51 11 65 12 99 5 19 -5 47 -21 62 -38z m671 -293 c38 -27 67 -88 67 -142
0 -58 -43 -121 -136 -199 l-69 -59 -59 4 c-55 4 -62 8 -97 47 -44 50 -58 108
-39 167 17 51 153 189 200 202 44 13 97 5 133 -20z m-2320 -89 c55 -48 72 -94
56 -154 -9 -33 -43 -71 -187 -213 -225 -221 -268 -255 -324 -254 -102 2 -169
122 -120 219 22 42 377 388 435 423 51 31 87 26 140 -21z m-4255 -59 c18 -11
41 -34 52 -52 26 -44 27 -131 1 -173 -28 -46 -131 -145 -175 -167 -120 -62
-252 68 -207 204 12 37 147 183 183 197 41 17 111 12 146 -9z m2204 -76 c9 -3
31 -21 47 -40 26 -29 31 -43 31 -84 0 -91 2 -88 -343 -413 -104 -98 -203 -185
-220 -194 -41 -21 -108 -20 -141 3 -63 40 -76 143 -28 210 47 64 488 487 534
512 41 22 60 23 120 6z m-1317 -64 c22 -11 48 -33 58 -49 23 -40 23 -127 -2
-167 -10 -17 -79 -87 -153 -156 -139 -128 -168 -146 -226 -131 -39 9 -80 40
-97 73 -21 40 -19 113 4 158 19 38 222 237 276 272 39 24 89 25 140 0z m4325
-55 c62 -32 90 -137 56 -203 -21 -40 -247 -256 -289 -275 -64 -31 -120 -16
-170 43 -31 36 -44 108 -28 148 14 34 254 273 296 296 34 18 90 14 135 -9z
m863 -183 c48 -42 62 -151 28 -207 -26 -43 -135 -146 -179 -169 -44 -23 -108
-18 -150 13 -37 26 -67 115 -57 167 12 65 163 220 228 234 36 7 100 -11 130
-38z m-6623 -142 c22 -11 52 -38 66 -60 23 -35 26 -47 22 -106 l-4 -67 -85
-82 c-51 -49 -100 -87 -121 -94 -92 -30 -198 55 -198 160 0 50 29 98 109 176
95 94 140 109 211 73z m4019 -214 c27 -27 35 -44 38 -83 7 -67 -7 -91 -118
-198 -51 -49 -127 -124 -170 -165 -89 -87 -120 -115 -170 -153 -78 -59 -183
-21 -208 77 -21 86 -16 94 192 299 106 104 211 205 235 224 73 61 139 61 201
-1z m-3238 -95 l44 -39 0 -72 0 -73 -140 -133 c-155 -148 -186 -168 -241 -158
-44 8 -102 57 -121 101 -12 30 -11 50 4 108 6 23 210 234 267 276 31 23 49 29
91 29 47 0 57 -4 96 -39z m4261 -11 c43 -12 93 -66 107 -114 18 -69 2 -100
-121 -223 -170 -172 -213 -197 -289 -167 -82 33 -124 137 -85 213 20 38 291
289 318 294 13 2 25 5 28 6 3 0 22 -4 42 -9z m989 -20 c23 0 99 -84 109 -121
20 -74 1 -114 -94 -206 -100 -96 -140 -114 -208 -94 -84 26 -132 112 -109 197
10 36 91 126 178 198 24 20 80 36 101 30 8 -2 18 -4 23 -4z m-4220 -189 c38
-37 39 -41 39 -107 l0 -69 -113 -110 c-434 -422 -472 -452 -544 -439 -23 4
-51 20 -70 40 -30 29 -33 37 -33 96 0 51 5 70 23 94 31 42 473 471 521 506 30
22 50 28 89 28 44 0 53 -4 88 -39z m-2313 -1 c57 -41 75 -80 70 -150 -4 -50
-10 -64 -48 -110 -24 -29 -66 -70 -93 -91 -40 -32 -57 -39 -93 -39 -78 0 -134
44 -154 121 -18 67 -4 107 64 178 123 129 176 148 254 91z m6042 -370 c57 -40
87 -139 59 -193 -23 -44 -92 -117 -151 -162 -50 -38 -67 -45 -105 -45 -52 0
-108 28 -137 67 -27 37 -33 121 -11 162 19 37 134 153 180 183 41 26 120 20
165 -12z m-5446 -55 c50 -33 77 -117 57 -178 -13 -39 -237 -264 -290 -292 -46
-23 -110 -12 -157 29 -34 30 -38 38 -42 94 -6 80 5 97 157 244 124 122 157
141 217 128 16 -4 43 -15 58 -25z m3029 -29 c43 -17 85 -68 93 -111 11 -63 -4
-93 -90 -179 -154 -155 -338 -328 -373 -352 -65 -44 -141 -26 -188 43 -28 42
-34 112 -12 148 7 12 82 88 167 171 324 314 324 314 403 280z m1283 -22 c60
-44 81 -131 48 -197 -18 -35 -206 -221 -268 -264 -99 -70 -226 5 -226 134 0
52 3 57 53 110 87 94 256 241 279 246 37 7 81 -4 114 -29z m-5400 -23 c57 -45
81 -109 63 -173 -11 -44 -86 -139 -142 -179 -120 -87 -275 35 -236 185 11 41
126 167 171 186 37 16 112 6 144 -19z m5997 -404 c27 -20 38 -39 47 -77 24
-99 -11 -159 -165 -282 -46 -38 -53 -40 -103 -36 -59 5 -95 27 -129 78 -27 39
-31 107 -9 148 15 28 129 142 181 181 42 32 128 26 178 -12z m-4206 -28 c58
-28 76 -65 71 -141 l-4 -58 -105 -102 c-57 -56 -176 -172 -264 -258 -88 -86
-173 -164 -190 -172 -74 -38 -135 -30 -180 23 -36 44 -36 127 2 181 14 21 140
149 280 283 290 279 302 287 390 244z m-2267 -52 c22 -15 47 -44 60 -71 20
-43 21 -51 9 -99 -10 -42 -24 -64 -73 -116 -69 -71 -101 -91 -146 -91 -112 0
-193 136 -142 236 20 38 103 124 152 158 33 23 90 16 140 -17z m905 -87 c55
-34 82 -117 62 -191 -9 -33 -237 -256 -282 -275 -64 -27 -145 8 -181 78 -8 15
-14 50 -14 78 l0 51 122 124 c164 168 208 188 293 135z m4258 -44 c18 -7 46
-28 62 -45 27 -29 30 -39 30 -94 0 -39 -6 -70 -15 -83 -35 -49 -275 -264 -306
-274 -50 -17 -104 2 -148 50 -31 35 -36 47 -36 91 0 27 6 62 14 77 20 38 246
255 287 275 42 20 70 21 112 3z m-1390 -163 c59 -30 86 -127 53 -191 -8 -15
-115 -123 -237 -240 -242 -231 -264 -246 -337 -224 -120 36 -135 184 -29 278
23 20 103 96 177 168 155 151 225 211 260 224 29 11 73 5 113 -15z m2135 -140
c57 -42 87 -136 64 -195 -12 -30 -160 -175 -196 -192 -91 -43 -190 5 -217 105
-11 40 -10 53 4 90 10 24 21 49 25 54 13 19 167 152 182 158 28 12 111 0 138
-20z m-6369 -17 c52 -33 83 -79 89 -131 7 -66 -3 -89 -70 -160 -77 -83 -107
-99 -164 -90 -115 17 -171 154 -105 256 52 80 138 148 189 149 12 0 40 -11 61
-24z m717 -252 c64 -31 103 -108 90 -180 -6 -30 -30 -60 -124 -156 -135 -138
-162 -152 -237 -123 -92 35 -127 146 -72 230 27 43 196 212 231 232 29 17 72
16 112 -3z m4252 -91 c15 -11 38 -35 50 -54 20 -28 23 -42 18 -84 -5 -49 -9
-53 -135 -177 -71 -70 -144 -136 -163 -148 -42 -25 -88 -25 -137 -1 -46 24
-68 56 -77 109 -11 70 8 101 139 227 67 65 136 126 152 137 38 24 115 20 153
-9z m-5402 -103 c48 -19 93 -98 94 -166 0 -69 -77 -167 -159 -201 -48 -20 -94
-9 -142 34 -77 70 -74 167 9 255 79 85 129 104 198 78z m2188 -15 c14 -9 35
-37 47 -61 19 -41 20 -49 8 -92 -11 -42 -38 -72 -262 -292 -137 -135 -265
-255 -285 -267 -46 -28 -106 -30 -149 -3 -36 22 -48 40 -57 93 -12 65 17 108
185 272 84 83 169 166 188 186 85 86 192 178 213 182 36 8 84 0 112 -18z
m4057 -48 c50 -34 79 -82 79 -134 0 -57 -16 -86 -87 -155 -86 -84 -127 -108
-182 -108 -82 0 -138 51 -152 138 -12 79 31 144 164 245 60 46 123 51 178 14z
m-2463 -151 c73 -38 101 -118 67 -191 -20 -42 -434 -438 -487 -467 -130 -69
-244 84 -159 213 16 24 114 125 218 224 235 225 226 217 271 225 56 11 61 11
90 -4z m-3178 -224 c37 -33 43 -44 47 -89 3 -29 3 -63 -1 -77 -7 -29 -83 -115
-167 -186 -92 -81 -152 -83 -223 -11 -34 35 -40 48 -43 93 -5 62 12 95 93 180
112 118 128 128 193 128 53 0 62 -3 101 -38z m-1009 4 c65 -27 99 -81 99 -156
0 -61 -9 -81 -64 -138 -77 -81 -134 -93 -203 -42 -77 57 -92 133 -44 228 54
107 127 144 212 108z m5123 -107 c61 -42 87 -114 61 -175 -27 -66 -264 -279
-321 -290 -75 -14 -153 33 -175 105 -22 74 -10 95 129 232 70 69 138 133 152
143 34 24 108 17 154 -15z m935 -15 c17 -4 50 -23 72 -43 37 -33 41 -41 46
-98 7 -74 -10 -106 -90 -179 -109 -98 -162 -119 -230 -90 -55 24 -89 69 -95
126 -7 72 16 114 106 196 99 90 123 101 191 88z m-6395 -326 c70 -68 79 -140
30 -226 -48 -82 -139 -117 -199 -78 -43 28 -78 92 -83 151 -5 58 11 93 71 162
26 30 35 33 83 33 50 0 57 -3 98 -42z m1975 -82 c50 -32 68 -83 51 -147 -10
-35 -49 -78 -261 -288 -273 -269 -304 -292 -370 -272 -52 16 -91 68 -97 129
-4 43 0 52 35 99 50 67 477 484 512 501 35 16 80 9 130 -22z m-1186 -24 c41
-39 57 -74 57 -129 0 -58 -10 -75 -104 -171 -81 -84 -110 -102 -161 -102 -109
0 -173 109 -125 216 23 54 64 100 154 176 57 48 62 50 105 44 30 -4 55 -16 74
-34z m2881 -82 c39 -35 51 -73 41 -135 -8 -55 -51 -109 -167 -209 -48 -42
-137 -123 -197 -181 -61 -58 -127 -113 -147 -121 -118 -49 -222 71 -164 191
11 24 42 63 68 86 26 24 123 115 216 203 92 89 180 169 195 178 15 11 45 18
73 18 38 0 54 -6 82 -30z m2231 -21 c63 -56 85 -138 54 -199 -20 -39 -92 -112
-158 -159 -99 -70 -229 -19 -247 97 -10 63 10 111 72 175 113 120 207 148 279
86z m-1124 -71 c80 -44 100 -150 44 -224 -30 -39 -227 -215 -253 -226 -9 -4
-38 -7 -63 -7 -105 -2 -176 104 -135 202 13 32 225 239 269 264 34 19 95 15
138 -9z m576 -437 c68 -50 90 -150 48 -217 -24 -38 -135 -139 -173 -157 -104
-50 -222 34 -222 159 0 43 4 50 68 116 98 104 135 128 192 128 36 0 56 -7 87
-29z m-1229 -169 c33 -21 72 -93 72 -131 0 -48 -24 -91 -77 -138 -27 -23 -73
-65 -103 -92 -110 -102 -180 -113 -251 -42 -41 40 -55 88 -45 145 7 34 83 115
216 228 72 60 128 69 188 30z m-1368 -127 c48 -25 70 -62 70 -117 0 -27 -6
-62 -14 -77 -13 -25 -128 -135 -256 -245 -25 -21 -74 -67 -110 -101 -104 -98
-131 -115 -182 -115 -111 0 -180 117 -123 207 22 32 432 415 473 440 43 26
100 30 142 8z m2017 -166 c65 -24 113 -93 113 -161 0 -56 -22 -91 -101 -160
-86 -74 -121 -92 -172 -84 -89 14 -143 90 -134 185 5 55 7 58 87 133 77 73
100 86 172 97 4 1 19 -4 35 -10z m-1278 -298 c40 -29 64 -75 65 -127 1 -53
-38 -104 -154 -201 -107 -89 -125 -97 -184 -89 -87 13 -143 93 -128 178 7 37
22 56 101 133 122 119 152 137 217 132 32 -2 63 -12 83 -26z m775 -175 c55
-23 81 -70 81 -147 0 -79 -21 -111 -117 -186 -56 -43 -68 -48 -123 -50 -67 -4
-84 5 -129 72 -28 41 -35 109 -15 148 14 27 122 131 164 158 35 22 92 25 139
5z m-1396 -368 c40 -24 61 -55 72 -103 14 -62 -3 -95 -88 -172 -112 -102 -146
-123 -198 -123 -68 0 -110 26 -140 85 -23 48 -24 55 -12 99 13 49 31 69 157
176 86 73 136 82 209 38z m860 -74 c63 -13 122 -93 122 -166 0 -55 -39 -108
-119 -163 -83 -56 -125 -63 -194 -30 -44 21 -65 49 -77 101 -14 60 -1 101 49
156 81 91 139 118 219 102z m-1427 -427 c19 -12 45 -44 58 -70 35 -71 21 -108
-70 -189 -90 -81 -122 -98 -185 -98 -43 0 -56 5 -91 35 -51 44 -69 91 -53 139
12 39 131 161 182 189 46 24 117 22 159 -6z m977 -16 c70 -36 101 -99 82 -168
-23 -79 -141 -173 -218 -173 -59 0 -98 23 -133 78 -25 40 -29 53 -23 92 7 51
22 79 71 127 63 64 149 81 221 44z m-486 -373 c51 -15 103 -75 112 -129 12
-74 -43 -144 -144 -183 -71 -28 -156 -3 -186 56 -27 53 -33 85 -22 125 13 48
39 77 103 114 55 32 79 35 137 17z"/>
</g>
</svg>
