<svg xmlns="http://www.w3.org/2000/svg" version="1.0" width="1635.000000pt" height="1635.000000pt" viewBox="0 0 1635.000000 1635.000000" preserveAspectRatio="xMidYMid meet">

<g transform="translate(0.000000,1635.000000) scale(0.100000,-0.100000)" fill="#fcfcfc" stroke="none">
<path d="M7735 13526 c-5 -2 -57 -9 -115 -15 -174 -19 -471 -65 -570 -87 -93 -21 -155 -37 -342 -88 -112 -31 -231 -70 -368 -121 -114 -43 -121 -46 -232 -94 -26 -12 -50 -21 -53 -21 -7 0 -97 -40 -115 -51 -8 -5 -26 -14 -40 -20 -63 -26 -302 -150 -310 -161 -3 -4 -17 -12 -30 -18 -14 -5 -38 -19 -55 -30 -16 -11 -39 -24 -50 -30 -11 -6 -33 -19 -50 -30 -16 -11 -39 -24 -50 -30 -24 -12 -58 -33 -65 -40 -3 -3 -52 -37 -110 -75 -57 -39 -112 -77 -121 -85 -34 -29 -48 -40 -54 -40 -3 0 -11 -5 -18 -10 -7 -6 -34 -27 -62 -48 -27 -20 -51 -40 -53 -44 -2 -5 -8 -8 -13 -8 -5 0 -17 -8 -27 -17 -10 -10 -40 -36 -66 -58 -138 -115 -213 -184 -365 -337 -151 -152 -224 -233 -360 -398 -61 -74 -120 -146 -131 -158 -11 -13 -20 -28 -20 -33 0 -5 -4 -9 -10 -9 -5 0 -10 -7 -10 -15 0 -8 -4 -15 -8 -15 -14 0 -222 -300 -222 -320 0 -4 -3 -10 -7 -12 -11 -4 -63 -85 -63 -97 0 -5 -4 -11 -8 -13 -17 -7 -225 -403 -302 -573 -13 -27 -33 -73 -46 -100 -13 -28 -24 -54 -24 -58 0 -5 -11 -32 -24 -60 -13 -29 -32 -74 -42 -102 -9 -27 -21 -54 -26 -59 -4 -6 -8 -20 -8 -32 0 -13 -4 -26 -10 -29 -5 -3 -10 -15 -10 -26 0 -11 -6 -30 -14 -42 -7 -12 -19 -44 -26 -72 -6 -27 -18 -66 -25 -85 -7 -19 -18 -53 -23 -75 -6 -22 -18 -65 -27 -95 -8 -30 -19 -71 -24 -90 -5 -19 -16 -60 -24 -90 -8 -30 -20 -84 -27 -120 -6 -36 -18 -92 -25 -125 -44 -192 -72 -407 -101 -776 -18 -229 -15 -665 5 -864 7 -60 16 -162 22 -225 6 -63 17 -155 25 -205 7 -49 21 -134 29 -187 9 -54 20 -110 24 -125 5 -15 14 -55 21 -88 7 -33 18 -80 25 -105 7 -25 18 -70 25 -100 7 -30 18 -75 26 -100 8 -25 26 -85 40 -135 33 -111 49 -163 62 -195 6 -14 27 -70 48 -125 20 -55 47 -123 60 -152 13 -28 24 -55 24 -60 0 -4 11 -30 25 -58 13 -27 25 -55 25 -61 0 -12 132 -274 188 -374 17 -30 41 -75 53 -100 12 -25 24 -47 28 -50 5 -4 14 -20 55 -95 20 -36 31 -43 44 -29 7 7 12 20 12 27 0 22 93 117 115 117 10 0 33 -5 51 -12 42 -15 80 -83 70 -124 -14 -55 -85 -139 -133 -156 -37 -13 -40 -20 -18 -42 8 -8 15 -19 15 -23 0 -5 8 -18 17 -29 10 -11 40 -52 67 -92 27 -39 53 -72 58 -72 4 0 8 -7 8 -15 0 -8 3 -15 8 -15 4 0 16 -14 27 -30 23 -34 35 -38 35 -12 1 9 34 52 75 95 41 43 75 82 75 88 0 5 3 9 8 9 4 0 44 36 89 80 85 84 109 94 155 68 78 -44 70 -123 -20 -217 -170 -177 -249 -254 -270 -262 l-23 -9 20 -26 c27 -34 124 -143 188 -211 29 -30 53 -56 53 -58 0 -1 51 -53 113 -115 104 -104 112 -110 115 -85 4 31 22 54 122 151 201 196 210 204 254 204 61 0 96 -38 96 -103 0 -46 -4 -53 -43 -91 -39 -37 -223 -207 -251 -231 -27 -25 -67 -45 -76 -40 -6 3 -7 -1 -4 -9 3 -9 9 -16 13 -16 3 0 24 -17 47 -38 22 -20 60 -53 84 -72 86 -70 105 -85 123 -100 11 -8 24 -20 31 -25 20 -18 160 -121 191 -141 17 -10 32 -22 35 -25 7 -9 110 -79 117 -79 3 0 22 -13 42 -28 43 -34 196 -122 211 -122 5 0 10 -4 10 -10 0 -5 11 -12 25 -16 14 -3 25 -10 25 -14 0 -4 12 -13 28 -19 15 -6 41 -20 57 -30 44 -29 110 -61 123 -61 7 0 12 -4 12 -9 0 -5 10 -13 22 -17 12 -4 63 -26 113 -49 136 -63 164 -75 179 -75 8 0 19 -7 26 -15 7 -8 22 -15 34 -15 12 0 31 -7 42 -15 10 -8 26 -15 34 -15 8 0 26 -6 40 -13 14 -7 52 -21 85 -31 33 -10 65 -22 70 -26 6 -3 39 -14 75 -24 36 -10 81 -24 100 -31 41 -15 119 -37 208 -59 34 -9 88 -22 120 -30 111 -28 349 -71 442 -81 30 -3 84 -10 120 -15 160 -23 524 -43 702 -37 427 13 882 75 1182 163 26 8 56 14 65 14 9 0 36 7 61 15 88 29 205 66 235 75 48 14 157 52 190 65 17 7 46 20 65 28 19 8 51 21 70 30 19 8 60 24 90 35 30 11 78 31 105 45 28 14 95 47 150 73 55 27 102 52 105 56 3 3 17 12 30 17 25 11 35 16 75 39 11 7 29 17 40 22 11 6 34 19 50 30 17 10 59 35 95 56 36 20 81 49 101 65 20 16 42 29 48 29 6 0 11 3 11 8 0 4 23 20 50 35 28 16 50 32 50 38 0 5 5 9 10 9 12 0 201 138 251 182 10 10 21 18 24 18 3 0 13 8 24 18 10 9 31 27 47 39 16 12 48 39 71 60 22 21 77 71 122 111 112 102 337 329 402 404 30 35 73 83 96 108 23 25 74 88 114 140 40 52 76 97 80 100 3 3 37 50 74 105 38 55 72 102 77 103 4 2 8 10 8 18 0 8 5 14 10 14 6 0 10 5 10 10 0 6 17 34 38 63 22 29 46 66 56 82 9 17 22 39 29 49 49 78 77 126 77 135 0 5 4 11 8 13 9 4 114 191 166 298 20 41 41 82 46 90 5 8 26 51 45 95 20 44 42 94 50 110 36 80 57 130 71 173 8 26 21 61 28 77 8 17 21 53 31 80 69 201 84 245 95 285 7 25 18 63 25 85 22 68 60 220 75 300 7 33 20 96 31 140 10 44 21 100 24 125 4 25 13 79 20 120 7 41 18 122 24 180 6 58 18 161 26 230 31 263 29 792 -5 1095 -28 250 -30 263 -71 495 -5 30 -16 84 -24 120 -8 36 -20 94 -26 130 -6 36 -20 97 -31 135 -11 39 -22 81 -24 95 -6 30 -51 180 -69 230 -7 19 -20 58 -29 85 -8 28 -29 88 -46 135 -17 47 -40 110 -51 140 -19 54 -31 83 -70 166 -10 22 -19 44 -19 48 0 8 -61 141 -82 181 -6 11 -43 82 -82 158 -90 175 -106 205 -131 242 -31 47 -45 69 -52 85 -4 8 -9 17 -12 20 -4 3 -15 22 -26 43 -11 20 -23 37 -27 37 -5 0 -8 5 -8 11 0 6 -11 25 -25 43 -14 18 -25 36 -25 40 0 7 -48 75 -60 86 -4 3 -21 28 -39 55 -66 98 -123 175 -131 175 -4 0 -23 -19 -41 -42 -19 -24 -58 -69 -88 -100 -47 -51 -59 -58 -92 -58 -61 0 -109 71 -95 142 6 31 30 62 134 171 l54 57 -95 103 c-52 56 -105 115 -118 130 -13 16 -80 84 -148 153 l-125 124 -25 -31 c-15 -17 -45 -51 -68 -75 -24 -25 -43 -47 -43 -50 0 -6 -64 -77 -128 -141 -65 -64 -103 -71 -151 -24 -58 57 -48 117 36 207 26 29 71 78 98 110 28 31 67 75 88 97 l38 40 -48 44 c-75 68 -260 213 -272 213 -6 0 -11 -4 -11 -10 0 -12 -24 -41 -107 -127 -59 -62 -65 -65 -107 -65 -44 1 -86 27 -86 52 0 6 -4 10 -10 10 -14 0 -12 70 3 97 7 11 43 54 81 94 l69 72 -29 24 c-16 13 -39 29 -51 36 -11 7 -92 55 -180 108 -87 53 -165 99 -173 103 -8 3 -33 17 -55 29 -70 40 -97 54 -217 111 -64 31 -147 67 -185 81 -37 14 -88 35 -113 47 -66 30 -78 35 -150 58 -36 12 -74 25 -85 30 -59 27 -235 82 -370 115 -55 14 -111 29 -125 34 -85 30 -329 72 -705 122 -81 11 -835 24 -860 15z m2892 -765 c32 -23 41 -37 47 -69 7 -47 0 -68 -34 -108 -47 -55 -103 -67 -157 -34 -88 53 -72 168 32 223 43 23 67 21 112 -12z m-278 -300 c69 -67 40 -165 -66 -228 -42 -24 -44 -24 -91 -9 -61 20 -87 60 -79 118 4 32 17 52 58 94 50 50 57 54 101 54 39 0 53 -5 77 -29z m392 -284 c48 -40 62 -94 37 -140 -21 -41 -170 -195 -199 -207 -61 -26 -128 21 -136 95 -7 53 3 68 125 193 69 71 85 82 114 82 19 -1 44 -10 59 -23z m-732 -37 c58 -43 80 -110 46 -144 -8 -8 -15 -18 -15 -23 0 -4 -22 -29 -49 -55 -43 -42 -54 -48 -91 -48 -26 0 -53 8 -70 20 -52 37 -64 125 -23 168 10 11 29 33 43 49 28 32 75 62 101 63 9 0 35 -14 58 -30z m-321 -365 c42 -45 45 -107 7 -147 -14 -15 -25 -30 -25 -33 0 -7 -32 -38 -60 -58 -14 -9 -42 -17 -64 -17 -31 0 -47 7 -73 32 -29 28 -33 38 -33 83 0 49 2 53 61 113 58 59 64 62 109 62 41 0 51 -4 78 -35z m602 -65 c0 -5 6 -10 13 -10 29 0 49 -99 28 -138 -5 -9 -55 -63 -110 -119 -89 -90 -106 -103 -136 -103 -67 0 -117 72 -101 147 6 26 52 81 159 191 38 39 45 42 94 42 29 0 53 -4 53 -10z m775 -92 c14 -6 25 -17 25 -25 0 -7 4 -13 10 -13 17 0 24 -71 9 -95 -21 -33 -120 -143 -240 -266 -111 -115 -127 -123 -183 -98 -27 12 -56 63 -56 97 0 37 18 66 79 130 34 35 61 66 61 68 0 3 12 18 28 33 15 16 55 57 88 92 34 35 70 69 80 76 25 15 66 16 99 1z m-1765 -173 c60 -31 89 -120 53 -163 -10 -11 -31 -37 -48 -58 -32 -39 -95 -84 -119 -84 -30 0 -82 32 -99 62 -18 32 -23 108 -7 108 6 0 10 6 10 13 0 14 74 95 110 120 30 21 62 22 100 2z m510 -215 c29 -15 60 -74 60 -113 0 -32 -12 -48 -113 -151 -122 -124 -139 -133 -202 -104 -27 12 -65 73 -65 104 0 23 52 104 68 104 6 0 12 3 12 8 1 13 126 142 138 142 7 0 12 5 12 10 0 13 66 13 90 0z m2052 -119 c13 -11 30 -37 36 -59 10 -33 9 -44 -7 -78 -11 -21 -28 -46 -38 -55 -10 -9 -45 -47 -78 -84 -135 -153 -149 -162 -206 -128 -46 27 -70 96 -51 145 11 25 58 80 158 184 81 83 95 94 126 94 20 0 46 -9 60 -19z m-2917 -59 c44 -39 58 -98 34 -145 -18 -35 -101 -117 -136 -133 -42 -20 -94 -3 -128 43 -49 63 -22 140 77 218 34 27 52 34 88 34 29 0 52 -6 65 -17z m3594 -70 c28 -23 34 -36 38 -78 5 -49 4 -52 -58 -130 -83 -103 -96 -113 -144 -113 -68 -1 -116 70 -94 138 13 39 95 151 138 188 36 31 79 29 120 -5z m-2080 -8 c29 -17 54 -62 54 -99 0 -39 -71 -123 -276 -328 l-98 -98 -47 3 c-40 3 -49 8 -69 37 -29 43 -29 94 -1 133 20 29 135 152 280 300 73 74 103 84 157 52z m-1120 -260 c40 -33 55 -86 36 -128 -15 -34 -188 -217 -222 -235 -74 -39 -151 30 -140 126 4 41 13 53 116 154 98 96 115 109 145 109 22 0 45 -9 65 -26z m-787 -35 c29 -15 58 -66 58 -101 0 -41 -29 -90 -87 -146 -57 -56 -87 -67 -138 -49 -53 18 -78 65 -71 130 5 43 12 55 68 111 75 76 108 86 170 55z m2836 -97 c47 -41 52 -122 9 -170 -12 -14 -71 -76 -131 -138 -106 -110 -111 -114 -152 -114 -37 0 -47 5 -68 33 -49 64 -33 129 54 218 14 15 54 56 88 93 35 36 73 73 85 81 30 21 89 19 115 -3z m747 -28 c20 -9 41 -31 55 -60 21 -40 22 -48 10 -83 -8 -25 -43 -71 -94 -125 -64 -68 -87 -86 -109 -86 -98 0 -139 104 -77 199 32 50 153 171 171 171 6 0 26 -7 44 -16z m621 -30 c26 -18 54 -72 54 -107 0 -27 -22 -87 -32 -87 -4 0 -8 -7 -8 -15 0 -8 -6 -15 -13 -15 -7 0 -19 -9 -27 -20 -25 -35 -81 -23 -127 27 -42 44 -42 109 -1 169 42 61 104 80 154 48z m-2940 -215 c41 -25 54 -47 54 -91 0 -44 -30 -86 -148 -209 -227 -238 -229 -239 -277 -239 -39 0 -47 4 -71 36 -36 47 -36 91 -1 141 15 21 81 93 147 159 66 67 120 125 120 128 0 20 105 95 134 96 5 0 24 -9 42 -21z m-1628 -40 c58 -60 49 -126 -29 -206 -28 -29 -53 -53 -55 -53 -3 0 -12 -7 -20 -15 -9 -8 -32 -15 -52 -15 -73 1 -125 80 -102 157 13 43 27 61 93 121 40 36 53 42 91 42 36 0 49 -6 74 -31z m645 -53 c25 -10 36 -23 47 -55 21 -66 3 -100 -115 -218 -92 -92 -106 -103 -138 -103 -65 0 -104 31 -109 85 -5 71 0 79 113 193 121 121 134 127 202 98z m3675 -27 c60 -59 52 -152 -20 -221 -22 -21 -50 -41 -64 -44 -30 -8 -89 28 -109 66 -30 59 -16 110 52 187 49 55 93 59 141 12z m-762 -109 c38 -24 59 -75 50 -124 -3 -17 -23 -50 -44 -73 -20 -22 -55 -61 -77 -87 -63 -72 -141 -85 -185 -29 -22 28 -27 95 -10 135 5 13 47 62 93 111 92 96 112 104 173 67z m-847 -45 c31 -36 40 -85 23 -126 -14 -34 -238 -270 -281 -296 -27 -17 -46 -16 -81 2 -29 15 -60 64 -60 95 0 41 35 91 130 190 56 58 115 120 133 138 45 46 93 45 136 -3z m-3145 -135 c56 -21 86 -82 72 -147 -7 -32 -86 -124 -132 -154 -55 -36 -131 -2 -155 68 -19 57 -4 97 58 161 75 76 108 91 157 72z m4449 -39 c32 -12 67 -70 67 -109 0 -38 -41 -108 -83 -142 -65 -53 -158 -20 -176 62 -14 61 42 169 99 191 24 9 66 8 93 -2z m-3878 -151 c23 -11 47 -32 53 -46 16 -34 14 -85 -4 -109 -45 -60 -190 -206 -218 -219 -41 -19 -81 -10 -111 26 -20 24 -25 41 -25 84 l0 55 103 103 c97 97 130 125 151 126 5 0 28 -9 51 -20z m819 -85 c37 -16 66 -58 66 -97 0 -37 -36 -87 -134 -184 -50 -50 -128 -130 -174 -177 -46 -47 -95 -88 -109 -92 -31 -7 -83 21 -101 56 -21 40 -10 113 24 149 126 135 324 330 349 342 39 21 37 20 79 3z m2200 -38 c36 -47 35 -104 -1 -156 -16 -22 -32 -41 -38 -41 -5 0 -28 -24 -50 -51 -22 -28 -57 -60 -79 -71 -37 -19 -41 -19 -81 -4 -33 13 -46 25 -60 56 -28 63 -12 98 95 208 89 92 90 92 139 92 45 0 53 -3 75 -33z m560 -69 c33 -14 66 -70 66 -109 0 -34 -39 -102 -84 -143 -42 -40 -112 -43 -150 -7 -66 62 -52 147 36 226 53 48 84 55 132 33z m-4505 -37 c59 -57 54 -117 -16 -198 -92 -109 -149 -125 -213 -61 -26 25 -30 37 -30 83 0 50 3 57 53 112 77 85 87 92 134 93 34 0 49 -6 72 -29z m2964 9 c37 -29 52 -81 36 -125 -7 -19 -17 -35 -21 -35 -4 0 -8 -4 -8 -10 0 -5 -19 -29 -42 -53 -24 -25 -71 -74 -106 -111 -35 -36 -67 -66 -72 -66 -4 0 -10 -7 -13 -14 -9 -22 -66 -48 -92 -42 -61 15 -99 104 -72 169 8 17 75 94 150 170 129 130 138 137 175 137 24 0 49 -8 65 -20z m-2513 -300 c11 -11 20 -24 20 -30 0 -5 5 -10 10 -10 15 0 11 -93 -5 -114 -23 -30 -165 -176 -172 -176 -3 0 -11 -7 -17 -16 -7 -8 -31 -18 -54 -21 -39 -5 -45 -3 -77 31 -28 30 -35 45 -35 77 0 56 10 71 119 181 94 96 97 97 144 98 34 0 52 -5 67 -20z m3728 -29 c54 -28 80 -89 63 -149 -20 -67 -114 -152 -168 -152 -30 1 -74 32 -92 67 -16 32 -13 105 6 133 35 51 115 117 146 119 4 1 25 -8 45 -18z m-693 -42 c33 -29 35 -35 35 -90 0 -32 -3 -59 -7 -59 -5 0 -17 -14 -28 -30 -11 -16 -24 -30 -30 -30 -5 0 -21 -15 -35 -32 -14 -18 -43 -50 -64 -70 -34 -33 -45 -38 -87 -38 -43 0 -51 4 -73 33 -18 23 -26 46 -26 73 0 40 19 94 32 94 4 0 31 26 60 57 101 108 120 123 155 123 22 0 44 -10 68 -31z m-3881 -43 c33 -31 36 -38 36 -90 0 -58 0 -58 -64 -119 -94 -92 -112 -100 -166 -72 -36 18 -70 73 -70 112 0 33 37 89 96 144 76 71 114 76 168 25z m1494 -158 c26 -29 36 -68 28 -112 -5 -27 -43 -71 -187 -215 -100 -100 -183 -181 -186 -181 -2 0 -11 -7 -19 -15 -26 -26 -79 -19 -113 16 -25 24 -31 39 -31 73 0 23 8 53 17 66 25 39 303 320 363 369 35 29 100 28 128 -1z m1319 5 c48 -42 56 -97 21 -146 -12 -18 -66 -77 -120 -132 -54 -55 -98 -103 -98 -107 0 -5 -6 -8 -13 -8 -7 0 -18 -9 -24 -20 -7 -11 -27 -27 -44 -36 -94 -48 -176 60 -120 158 10 18 80 95 155 171 133 134 138 137 180 137 27 0 50 -7 63 -17z m1439 -141 c26 -21 54 -73 54 -102 0 -60 -101 -177 -161 -186 -71 -12 -129 42 -129 119 0 49 12 71 74 134 46 48 55 52 96 52 28 1 53 -6 66 -17z m-4653 -98 c66 -61 61 -133 -16 -214 -58 -61 -98 -90 -123 -90 -28 0 -82 39 -99 72 -32 65 -16 109 73 196 55 53 69 62 100 62 26 0 46 -8 65 -26z m727 11 c7 -8 18 -15 24 -15 16 0 36 -48 36 -88 0 -46 -13 -66 -94 -150 -39 -40 -72 -77 -74 -82 -2 -6 -8 -10 -14 -10 -5 0 -16 -7 -24 -15 -22 -21 -99 -20 -121 3 -22 22 -43 67 -43 93 0 37 38 94 114 169 104 103 165 133 196 95z m3092 -65 c30 -32 41 -90 24 -131 -17 -40 -172 -197 -215 -218 -81 -39 -168 64 -127 151 9 18 56 74 104 125 66 70 94 92 117 95 45 5 78 -3 97 -22z m479 -221 c29 -15 52 -78 46 -128 -3 -25 -10 -47 -16 -49 -6 -2 -11 -7 -11 -12 0 -8 -58 -70 -66 -70 -2 0 -13 -9 -24 -20 -35 -35 -115 -22 -145 23 -42 64 -27 129 48 206 63 66 110 80 168 50z m-1649 -78 c31 -32 38 -47 38 -79 0 -35 -8 -49 -52 -98 -119 -130 -271 -274 -292 -275 -65 -3 -89 10 -113 64 -17 37 -16 57 2 95 16 31 262 282 277 282 4 0 8 4 8 10 0 12 50 39 74 40 11 0 36 -18 58 -39z m-3046 -37 c53 -35 70 -114 35 -169 -26 -43 -101 -116 -131 -127 -38 -14 -86 -1 -114 33 -21 24 -26 41 -26 83 0 50 2 54 63 118 34 36 69 68 77 71 30 11 71 7 96 -9z m1561 -54 c8 0 28 -13 44 -29 53 -53 37 -120 -49 -206 -178 -179 -311 -304 -332 -315 -64 -34 -140 16 -140 90 0 49 26 82 208 267 155 157 216 208 240 198 7 -3 20 -5 29 -5z m-903 -66 c22 -23 26 -35 26 -85 l0 -59 -105 -104 c-105 -103 -134 -121 -179 -107 -61 18 -86 68 -72 143 6 33 97 136 181 206 52 42 110 45 149 6z m3073 -30 c32 -20 46 -60 40 -112 -4 -38 -15 -53 -98 -137 -125 -126 -166 -140 -225 -81 -29 29 -34 41 -34 80 0 39 6 52 38 88 86 96 151 161 173 173 28 16 73 11 106 -11z m615 -136 c21 -21 32 -77 24 -122 -8 -44 -112 -151 -155 -161 -48 -10 -97 11 -115 49 -20 43 -21 110 -1 130 8 8 15 18 15 22 0 13 95 97 124 109 32 14 78 3 108 -27z m-4746 -98 c56 -22 81 -71 71 -142 -4 -32 -17 -52 -59 -95 -76 -78 -100 -89 -152 -69 -78 30 -101 122 -48 194 35 48 101 108 127 115 32 8 32 8 61 -3z m2875 -159 c39 -38 48 -88 23 -131 -11 -18 -45 -58 -77 -89 -82 -78 -139 -136 -158 -157 -47 -56 -104 -94 -140 -94 -69 0 -116 83 -86 152 13 28 93 114 245 261 80 76 96 87 127 87 25 0 44 -8 66 -29z m-2314 -68 c47 -42 57 -112 23 -156 -22 -28 -89 -95 -163 -164 -61 -58 -102 -59 -152 -6 -27 28 -35 46 -35 73 0 45 13 63 124 178 88 90 91 92 136 92 30 0 54 -6 67 -17z m3091 -44 c31 -31 36 -49 32 -113 -2 -39 -191 -230 -235 -238 -76 -15 -136 52 -122 136 4 25 30 57 114 139 96 95 112 107 144 107 26 0 43 -8 67 -31z m683 -2 c49 -33 73 -85 60 -134 -12 -44 -105 -144 -152 -163 -50 -21 -104 3 -130 57 -19 39 -20 50 -10 83 18 60 142 176 192 180 3 0 21 -10 40 -23z m-3032 -128 c26 -26 31 -38 31 -79 l0 -49 -191 -193 c-106 -105 -207 -200 -226 -210 -40 -22 -66 -17 -105 20 -23 21 -28 34 -28 73 0 29 6 53 15 63 8 8 15 17 15 19 0 9 355 363 375 375 38 21 81 14 114 -19z m-1666 9 c67 -35 86 -110 46 -178 -27 -46 -95 -109 -126 -116 -59 -15 -112 16 -133 80 -20 61 6 109 103 194 40 34 73 40 110 20z m4317 -274 c39 -23 60 -65 60 -118 0 -43 -4 -49 -75 -121 -68 -68 -79 -75 -114 -75 -22 0 -44 6 -51 15 -7 8 -19 15 -26 15 -8 0 -14 7 -14 15 0 8 -4 15 -10 15 -6 0 -10 27 -10 60 l0 60 74 75 c81 82 110 92 166 59z m-3869 -62 c28 -25 32 -35 33 -84 l0 -56 -74 -77 c-41 -42 -76 -80 -78 -85 -2 -6 -8 -10 -14 -10 -6 0 -17 -8 -24 -17 -9 -14 -25 -18 -61 -16 -40 1 -53 7 -75 32 -42 47 -39 104 9 160 60 70 147 158 168 169 37 20 83 14 116 -16z m2175 -15 c24 -29 54 -85 54 -101 0 -12 -12 -38 -26 -59 -28 -41 -233 -247 -246 -247 -4 0 -8 -5 -8 -11 0 -22 -78 -79 -110 -79 -31 0 -75 34 -90 70 -27 65 -13 87 157 258 87 88 167 165 178 171 15 8 84 7 91 -2z m869 3 c32 -12 46 -27 63 -63 24 -56 14 -92 -45 -156 -18 -19 -33 -38 -33 -43 0 -4 -5 -8 -10 -8 -6 0 -26 -18 -46 -40 -57 -63 -93 -81 -137 -69 -47 13 -87 68 -87 121 0 34 9 47 103 142 89 91 129 123 159 125 4 1 19 -4 33 -9z m-3835 -32 c63 -43 71 -131 19 -192 -52 -61 -66 -75 -86 -85 -57 -29 -130 8 -150 77 -18 64 2 110 80 181 52 47 88 52 137 19z m4281 -301 c37 -25 52 -70 42 -126 -6 -36 -80 -120 -136 -156 -70 -45 -167 19 -167 111 0 32 9 46 79 115 68 68 83 79 113 79 20 0 50 -10 69 -23z m-2997 -23 c51 -25 73 -94 46 -144 -6 -11 -100 -110 -209 -220 -192 -194 -199 -200 -238 -200 -27 0 -48 7 -66 23 -23 19 -27 31 -27 76 0 38 6 60 21 79 35 45 340 352 350 352 5 0 9 5 9 10 0 10 53 39 72 40 4 0 23 -7 42 -16z m-1643 -28 c65 -27 94 -95 69 -161 -16 -43 -116 -135 -146 -135 -59 0 -124 73 -124 138 0 32 76 128 126 159 25 16 35 16 75 -1z m668 -72 c32 -19 62 -91 54 -126 -9 -33 -23 -52 -105 -135 -89 -92 -113 -106 -161 -92 -51 14 -77 51 -77 109 0 52 20 81 138 198 70 68 99 77 151 46z m3044 -36 c51 -27 67 -51 67 -105 l0 -52 -106 -107 c-104 -105 -107 -107 -152 -107 -38 0 -49 4 -75 33 -26 29 -29 38 -25 85 4 51 7 55 99 147 122 122 141 133 192 106z m-1013 -114 c63 -25 88 -95 56 -153 -22 -40 -315 -328 -347 -341 -34 -15 -66 -8 -102 21 -23 18 -27 28 -27 76 l0 55 110 111 c61 61 110 113 110 115 0 10 144 132 157 132 2 0 21 -7 43 -16z m1557 -121 c54 -55 56 -118 6 -175 -98 -109 -123 -124 -183 -113 -43 8 -75 40 -83 83 -14 69 7 105 107 192 46 39 53 42 93 36 23 -3 51 -14 60 -23z m-4577 9 c0 -5 11 -14 23 -19 29 -14 57 -70 57 -115 0 -37 -17 -66 -72 -124 -34 -35 -42 -39 -85 -38 -40 1 -51 6 -75 35 -51 61 -36 140 42 219 41 40 110 67 110 42z m562 -234 c38 -44 45 -90 21 -128 -11 -17 -55 -66 -98 -110 -70 -72 -82 -80 -116 -80 -67 0 -112 67 -101 149 2 13 33 53 68 90 35 36 64 67 64 69 0 7 36 40 50 45 34 14 85 -2 112 -35z m3015 -46 c10 -9 24 -29 32 -44 24 -47 6 -82 -97 -187 -125 -126 -147 -138 -206 -107 -42 21 -55 46 -56 103 l0 52 87 88 c118 118 128 125 180 119 24 -3 51 -14 60 -24z m-3845 -84 c27 -29 38 -60 38 -106 0 -43 -5 -55 -40 -94 -70 -80 -127 -85 -186 -15 -23 27 -26 38 -22 83 4 42 11 58 44 94 21 23 48 46 59 51 27 12 92 4 107 -13z m1546 -1 c8 -6 21 -27 29 -45 23 -55 2 -91 -127 -222 -63 -64 -143 -147 -178 -183 -35 -37 -67 -67 -72 -67 -4 0 -13 -7 -20 -15 -21 -25 -74 -18 -109 14 -26 24 -31 37 -31 74 0 41 5 51 53 103 126 141 325 337 352 350 33 15 79 11 103 -9z m2905 -42 c33 -32 37 -41 37 -88 0 -48 -4 -56 -42 -98 -88 -94 -140 -116 -196 -85 -35 19 -62 66 -62 109 0 44 4 49 89 134 55 55 68 63 101 63 29 0 45 -8 73 -35z m-1762 -108 c52 -43 62 -91 31 -142 -27 -44 -322 -335 -352 -347 -41 -16 -86 -1 -109 36 -28 45 -26 83 5 129 14 21 92 105 174 187 142 142 155 151 215 158 6 1 22 -9 36 -21z m-2283 -158 c29 -28 32 -37 32 -90 0 -33 -4 -59 -10 -59 -5 0 -10 -5 -10 -10 0 -18 -121 -131 -154 -145 -72 -31 -149 49 -132 138 4 23 31 60 82 115 72 77 79 82 118 82 34 0 49 -6 74 -31z m-688 -17 c28 -33 40 -62 40 -98 0 -44 -12 -68 -58 -116 -31 -33 -42 -38 -79 -38 -30 0 -45 5 -49 15 -4 8 -12 15 -20 15 -8 0 -14 7 -14 15 0 8 -4 15 -10 15 -5 0 -10 22 -10 48 0 71 41 146 90 165 26 11 94 -3 110 -21z m3637 -72 c31 -31 44 -72 35 -118 -5 -23 -122 -152 -139 -152 -5 0 -14 -9 -20 -20 -34 -54 -115 -61 -168 -15 -24 20 -29 32 -29 73 -1 47 2 54 54 110 30 33 61 60 68 61 6 0 12 5 12 11 0 5 16 25 37 45 49 47 104 49 150 5z m703 -26 c35 -32 49 -98 30 -143 -13 -33 -89 -108 -137 -136 -28 -16 -36 -17 -70 -6 -46 15 -83 64 -83 108 0 30 37 113 51 113 3 0 27 20 51 45 39 39 51 45 87 45 30 0 49 -7 71 -26z m-4624 -206 c54 -47 68 -111 38 -171 -21 -39 -32 -50 -70 -70 -61 -32 -134 32 -134 117 0 74 53 146 107 146 20 0 43 -9 59 -22z m1414 -69 c29 -16 39 -29 43 -55 10 -61 -8 -93 -112 -198 -55 -56 -137 -141 -183 -190 -80 -83 -87 -89 -127 -90 -35 -1 -47 4 -67 27 -42 49 -44 107 -4 147 11 11 20 22 20 25 0 9 324 332 345 343 29 16 43 15 85 -9z m-841 -20 c40 -37 53 -106 30 -152 -6 -12 -39 -50 -72 -84 -56 -58 -65 -63 -104 -63 -63 0 -94 31 -96 96 -2 65 13 95 87 167 50 48 64 57 96 57 23 0 44 -8 59 -21z m2054 -59 c30 -24 41 -64 31 -117 -6 -32 -31 -61 -173 -200 -91 -89 -178 -167 -194 -174 -22 -9 -35 -9 -65 3 -30 11 -39 21 -51 57 -21 67 -2 96 189 284 152 151 172 167 203 167 19 0 45 -9 60 -20z m1603 -22 c24 -28 42 -65 48 -98 5 -34 -35 -93 -102 -147 -67 -55 -114 -59 -164 -14 -30 27 -33 34 -33 89 0 53 4 64 28 86 15 14 27 29 27 33 1 4 20 22 43 40 54 41 122 46 153 11z m-786 -69 c62 -66 49 -118 -55 -218 -88 -85 -125 -111 -157 -111 -41 0 -84 33 -98 75 -21 62 -6 92 97 193 90 88 96 92 138 92 37 0 50 -5 75 -31z m412 -330 c22 -26 28 -44 28 -81 0 -43 -5 -52 -52 -104 -29 -31 -68 -63 -86 -71 -80 -34 -162 27 -162 119 0 26 14 45 75 106 l74 75 48 -6 c38 -4 53 -12 75 -38z m-897 -107 c32 -28 45 -59 45 -104 0 -40 -5 -48 -78 -118 -42 -42 -88 -84 -102 -93 -33 -23 -82 -21 -113 4 -30 23 -53 86 -44 121 5 19 90 118 101 118 2 0 23 20 47 44 37 38 50 45 84 45 24 0 48 -7 60 -17z m-982 -94 c57 -29 75 -98 40 -148 -15 -22 -142 -150 -149 -150 -1 0 -44 -41 -96 -90 -97 -95 -117 -106 -171 -96 -48 9 -71 41 -70 99 l1 48 158 156 c87 86 172 164 189 174 35 22 67 24 98 7z m1479 -145 c48 -52 60 -100 37 -146 -15 -30 -108 -116 -138 -128 -71 -28 -157 46 -148 127 3 29 15 53 38 79 87 97 161 121 211 68z m-947 -201 c57 -51 60 -108 8 -174 -21 -26 -41 -47 -44 -48 -3 0 -28 -20 -55 -45 -41 -38 -55 -45 -89 -45 -50 0 -81 21 -100 67 -24 58 -8 94 85 185 78 75 82 78 128 78 30 -1 54 -7 67 -18z m543 -128 c24 -5 36 -16 52 -48 24 -50 25 -87 6 -124 -13 -26 -79 -92 -91 -92 -4 0 -13 -7 -21 -15 -9 -8 -33 -15 -54 -15 -33 0 -44 6 -74 42 -25 28 -36 51 -36 73 0 38 21 85 38 85 6 0 12 5 12 10 0 12 65 72 89 82 21 9 42 9 79 2z m-977 -285 c54 -38 54 -129 0 -178 -14 -13 -46 -42 -70 -65 -40 -37 -49 -41 -97 -41 -58 0 -89 21 -103 73 -17 58 -3 88 75 159 41 38 85 71 97 74 29 9 66 0 98 -22z m627 -58 c2 -6 9 -11 15 -11 18 0 37 -36 43 -83 6 -50 -19 -107 -53 -122 -13 -5 -23 -13 -23 -17 0 -4 -19 -17 -41 -29 -40 -20 -43 -20 -86 -4 -28 11 -49 27 -58 45 -17 33 -20 120 -5 120 6 0 10 4 10 10 0 12 56 69 89 92 28 19 103 18 109 -1z m-1050 -305 c36 -19 57 -59 56 -107 -1 -39 -20 -63 -109 -138 -59 -50 -132 -36 -175 34 -27 44 -19 72 38 137 77 85 129 105 190 74z m726 -31 c38 -35 49 -69 35 -115 -18 -60 -104 -130 -159 -130 -38 0 -100 56 -102 91 -4 68 3 88 47 133 42 43 47 46 98 46 44 0 59 -5 81 -25z m-326 -287 c44 -42 49 -123 8 -163 -77 -78 -188 -70 -216 16 -19 56 -6 103 38 137 20 16 44 32 52 35 27 11 94 -3 118 -25z" fill="#fcfcfc"/>
</g>
</svg>