<svg xmlns="http://www.w3.org/2000/svg" version="1.0" width="2048.000000pt" height="2048.000000pt" viewBox="0 0 2048.000000 2048.000000" preserveAspectRatio="xMidYMid meet">

<g transform="translate(0.000000,2048.000000) scale(0.100000,-0.100000)" fill="#fcfcfc" stroke="none">
<path d="M17404 18927 c-54 -29 -192 -156 -259 -237 -64 -79 -82 -115 -130 -250 l-36 -105 38 -34 c313 -281 718 -683 803 -795 23 -31 48 -56 54 -56 26 0 124 34 192 66 57 27 89 52 160 127 113 117 210 239 229 284 20 48 18 130 -4 178 -37 82 -179 255 -306 375 -44 41 -116 109 -160 152 -147 140 -318 274 -388 303 -54 22 -144 19 -193 -8z" fill="#fcfcfc"/>
<path d="M16799 18079 c-51 -56 -100 -110 -107 -121 -12 -17 -6 -50 49 -274 l63 -254 -20 -27 c-38 -50 -116 -51 -148 -1 -8 13 -34 107 -57 209 l-43 187 -211 -217 c-116 -119 -233 -241 -260 -271 -28 -30 -55 -58 -61 -62 -6 -4 -32 -32 -58 -62 l-47 -56 61 -242 c34 -135 59 -252 55 -265 -9 -37 -45 -63 -87 -63 -64 0 -79 25 -121 195 -20 83 -39 165 -42 183 -4 17 -10 32 -15 32 -9 0 -542 -550 -595 -615 l-34 -40 54 -213 c72 -283 75 -303 42 -336 -34 -34 -86 -35 -121 -3 -20 17 -32 47 -52 132 -15 61 -37 146 -50 190 l-23 80 -151 -155 c-83 -85 -226 -233 -318 -329 l-167 -173 29 -107 c105 -386 109 -405 75 -452 -17 -24 -28 -29 -60 -29 -73 0 -81 17 -158 338 -10 46 -22 87 -26 90 -6 6 -78 -65 -535 -533 -119 -121 -263 -258 -320 -304 -58 -46 -114 -91 -125 -100 -52 -43 -262 -154 -380 -201 -142 -57 -372 -110 -472 -110 -24 0 -43 -3 -43 -7 0 -26 101 -240 152 -323 133 -215 262 -375 440 -544 142 -134 166 -153 310 -254 126 -88 328 -196 474 -252 43 -16 81 -30 85 -30 3 0 11 44 18 98 6 53 16 111 20 127 5 17 23 77 40 135 48 168 147 366 260 520 60 82 185 224 299 339 41 41 80 84 87 95 15 23 19 4 -54 320 -23 99 -41 194 -41 211 0 44 32 75 78 75 71 -1 81 -19 138 -262 21 -93 42 -168 45 -168 3 0 35 30 70 68 285 300 390 413 420 447 19 22 36 42 39 45 3 3 27 28 53 56 l48 51 -50 194 c-83 322 -84 359 -14 378 30 9 44 7 72 -7 32 -15 38 -25 62 -102 14 -47 36 -136 50 -197 13 -62 26 -113 30 -113 3 0 116 116 250 258 134 141 275 289 312 328 l68 72 -46 188 c-25 104 -51 208 -57 231 -6 24 -11 61 -12 84 -1 51 28 79 83 79 59 0 75 -26 116 -185 20 -77 43 -163 51 -192 l14 -51 103 106 c56 59 161 167 233 242 119 124 214 225 272 291 l22 26 -61 242 c-67 263 -69 299 -23 319 56 26 112 7 132 -45 6 -15 20 -64 31 -108 54 -216 65 -255 70 -253 3 2 165 166 359 366 l353 363 -60 72 c-93 111 -742 747 -763 747 -3 0 -47 -45 -99 -101z" fill="#fcfcfc"/>
<path d="M11056 14403 c-100 -30 -103 -33 -656 -604 -157 -161 -302 -312 -324 -334 -21 -22 -133 -139 -250 -260 -116 -121 -272 -283 -346 -360 -185 -192 -294 -306 -730 -765 -107 -113 -260 -272 -341 -355 -80 -82 -181 -188 -224 -235 -43 -47 -187 -197 -320 -335 -132 -137 -326 -340 -431 -450 -322 -340 -370 -390 -678 -710 -422 -437 -528 -547 -636 -660 -137 -145 -560 -584 -736 -765 -287 -296 -640 -662 -753 -783 -63 -67 -221 -232 -350 -368 -130 -135 -321 -335 -426 -445 -104 -109 -251 -262 -325 -339 -74 -77 -187 -194 -250 -260 -64 -66 -181 -187 -260 -270 -299 -310 -594 -619 -855 -895 -147 -157 -312 -330 -365 -385 -195 -203 -243 -269 -289 -392 -49 -134 -64 -231 -58 -373 10 -204 64 -401 179 -655 77 -171 111 -231 226 -405 209 -315 461 -596 768 -856 312 -264 546 -409 949 -587 193 -85 419 -137 600 -137 197 0 368 50 515 150 56 38 113 95 366 365 77 83 216 231 309 330 94 99 199 211 235 249 36 39 119 126 186 195 66 69 152 160 190 201 38 41 81 86 95 100 14 14 63 66 109 115 46 50 118 126 160 170 42 44 114 121 160 170 46 50 138 146 204 215 67 69 161 168 210 220 50 52 187 196 306 320 119 124 303 317 410 430 107 113 211 221 231 240 20 19 119 123 220 230 172 184 472 498 744 780 66 69 154 161 195 205 41 44 144 152 229 240 281 290 405 419 455 475 27 30 117 125 200 210 83 85 214 220 291 300 77 80 212 219 300 310 88 91 225 235 305 320 79 85 194 207 255 270 61 63 145 151 186 195 41 44 199 208 350 365 151 157 362 377 469 490 238 250 348 365 420 439 94 96 551 571 635 661 44 47 152 159 240 250 88 91 252 262 365 379 113 117 229 236 258 264 33 32 66 78 89 123 34 69 35 76 31 161 -3 70 -9 98 -30 138 -14 28 -57 111 -95 185 -74 144 -112 237 -137 340 -16 69 -43 216 -48 264 -3 28 -8 31 -129 71 -223 74 -472 215 -699 396 -104 82 -323 303 -420 421 -174 213 -296 435 -393 709 -4 12 -23 19 -69 24 -171 18 -370 72 -497 135 -33 17 -62 30 -64 30 -3 0 -44 22 -93 49 -103 57 -228 101 -282 100 -20 0 -59 -7 -86 -16z m412 -795 c47 -29 76 -95 67 -151 -7 -36 -24 -58 -129 -165 -121 -124 -173 -162 -221 -162 -105 0 -192 125 -149 215 16 35 233 247 277 272 36 20 115 16 155 -9z m753 -494 c60 -57 61 -144 2 -223 -65 -85 -196 -80 -254 11 -41 66 -8 152 85 220 35 26 48 29 89 25 35 -3 56 -12 78 -33z m-1433 -136 c48 -30 76 -95 67 -157 -6 -43 -15 -54 -138 -174 -72 -71 -144 -135 -160 -144 -38 -19 -109 -12 -146 14 -74 55 -93 143 -43 204 33 42 214 215 262 252 45 34 107 36 158 5z m909 -318 c64 -38 88 -114 59 -183 -19 -44 -316 -338 -447 -442 -104 -82 -229 -19 -229 114 l0 55 118 116 c213 210 329 318 363 339 43 26 95 27 136 1z m-1623 -314 c18 -7 47 -31 64 -52 26 -32 32 -47 32 -87 0 -26 -6 -60 -14 -75 -21 -40 -245 -255 -288 -275 -47 -22 -80 -22 -127 3 -71 36 -102 128 -68 201 13 30 245 252 292 281 36 22 64 23 109 4z m3055 -93 c46 -35 62 -66 63 -121 0 -36 -6 -60 -20 -79 -39 -56 -375 -375 -408 -389 -43 -18 -68 -18 -110 2 -52 25 -75 64 -75 128 0 30 4 63 9 73 6 10 59 66 118 123 59 58 139 138 178 178 39 41 87 83 106 93 42 23 101 19 139 -8z m-2299 -408 c49 -25 80 -81 80 -144 0 -62 16 -44 -280 -326 -214 -205 -260 -226 -342 -157 -56 47 -72 115 -42 179 18 37 432 439 467 453 34 14 85 11 117 -5z m-1410 -164 c59 -42 87 -140 56 -199 -15 -29 -208 -221 -266 -264 -20 -15 -54 -30 -75 -33 -34 -6 -46 -2 -83 25 -25 18 -50 47 -59 68 -20 48 -13 120 16 161 39 54 260 250 294 260 40 12 84 5 117 -18z m4319 -77 c31 -27 41 -45 46 -79 13 -81 2 -100 -134 -238 -69 -71 -134 -133 -144 -139 -32 -17 -104 -11 -141 12 -37 23 -76 90 -76 133 0 14 5 38 10 53 12 31 125 151 223 235 65 56 70 59 122 59 49 0 59 -4 94 -36z m-1429 -163 c14 -10 31 -29 37 -42 15 -29 17 -108 4 -143 -6 -13 -86 -98 -178 -189 -363 -354 -379 -367 -450 -367 -79 0 -140 80 -127 167 7 51 24 72 132 175 42 40 145 140 228 221 83 82 165 157 182 167 67 41 124 44 172 11z m-2343 -392 c69 -26 110 -101 97 -177 -5 -32 -32 -63 -184 -213 -255 -252 -279 -271 -344 -277 -45 -4 -56 -1 -84 23 -61 51 -79 123 -47 185 8 16 59 71 112 122 53 51 146 141 205 199 96 96 170 149 205 149 6 0 24 -5 40 -11z m-1229 -28 c60 -32 90 -131 58 -192 -15 -29 -256 -267 -289 -286 -12 -7 -40 -12 -63 -13 -54 0 -102 32 -130 90 -19 37 -22 52 -15 89 8 38 24 59 127 163 117 118 171 162 210 170 23 5 72 -5 102 -21z m4284 -31 c21 -6 51 -27 72 -50 31 -35 36 -47 36 -91 0 -27 -6 -62 -14 -77 -16 -31 -245 -260 -278 -279 -13 -7 -40 -12 -61 -13 -90 0 -157 64 -157 152 0 61 25 102 103 169 34 29 89 79 122 111 57 54 107 88 130 88 6 0 26 -5 47 -10z m-1701 -497 c42 -25 63 -75 56 -136 -9 -72 5 -57 -420 -470 -110 -107 -169 -143 -223 -134 -38 6 -83 37 -101 70 -18 31 -16 113 3 153 9 19 66 80 128 136 61 56 172 162 246 235 75 73 151 139 170 147 47 20 106 20 141 -1z m-3288 -127 c47 -19 85 -68 92 -121 6 -37 3 -52 -18 -88 -37 -62 -268 -284 -306 -292 -63 -14 -149 32 -173 93 -13 36 -12 95 3 124 18 37 258 268 292 283 41 18 70 18 110 1z m4352 -55 c63 -35 87 -151 44 -214 -39 -57 -243 -250 -284 -268 -22 -10 -53 -19 -69 -19 -39 0 -99 36 -121 73 -23 39 -23 112 -1 154 21 42 289 290 318 295 34 6 79 -2 113 -21z m-3216 -79 c41 -30 63 -67 68 -115 8 -70 -22 -110 -241 -319 -157 -151 -203 -189 -236 -198 -51 -14 -67 -9 -117 38 -47 43 -66 96 -52 145 14 52 385 422 461 461 38 19 81 14 117 -12z m-1782 -532 c49 -29 68 -65 68 -129 0 -70 -10 -85 -161 -236 -89 -89 -123 -117 -154 -125 -82 -22 -155 23 -181 110 -22 71 -2 109 121 231 141 140 181 169 234 169 23 0 55 -9 73 -20z m4319 -71 c13 -12 31 -41 40 -65 14 -37 15 -50 4 -95 -11 -46 -24 -63 -114 -154 -127 -127 -196 -175 -251 -175 -93 0 -160 96 -135 192 9 33 36 67 128 160 64 66 132 128 150 140 67 41 132 40 178 -3z m-1355 -86 c70 -59 73 -134 8 -218 -49 -65 -413 -417 -481 -466 -62 -45 -114 -51 -166 -19 -58 36 -79 126 -46 196 16 33 449 453 523 509 49 36 118 35 162 -2z m-1991 -86 c70 -36 93 -150 44 -222 -28 -41 -360 -369 -403 -397 -36 -25 -106 -23 -148 3 -43 27 -63 66 -63 125 0 40 6 55 40 99 22 29 66 75 98 103 31 27 108 100 170 162 63 61 128 118 145 126 40 17 85 17 117 1z m-1640 -412 c60 -31 89 -98 75 -172 -5 -31 -30 -62 -133 -166 -70 -71 -139 -135 -154 -143 -116 -61 -247 72 -198 201 12 31 234 256 275 278 38 20 98 21 135 2z m4271 -78 c64 -42 86 -127 54 -204 -15 -35 -227 -254 -280 -289 -31 -20 -94 -20 -133 0 -46 24 -84 79 -90 131 -6 59 15 89 168 239 153 150 206 173 281 123z m-3394 -311 c44 -48 60 -104 43 -158 -10 -35 -46 -76 -195 -225 -197 -198 -228 -219 -301 -208 -32 4 -51 15 -78 45 -66 73 -61 129 19 223 77 91 335 337 370 353 49 23 105 11 142 -30z m1774 -29 c19 -12 42 -38 51 -57 21 -40 23 -115 5 -147 -31 -55 -461 -475 -514 -502 -25 -12 -61 -21 -89 -21 -39 0 -51 5 -79 33 -22 22 -35 47 -40 75 -14 85 -11 89 257 352 138 135 266 255 287 267 46 29 79 29 122 0z m-3293 -237 c67 -30 100 -123 69 -192 -15 -33 -231 -256 -266 -274 -69 -36 -159 -4 -191 69 -42 92 -23 136 122 279 146 144 178 158 266 118z m4219 -100 c40 -24 73 -87 73 -138 0 -56 -36 -103 -187 -247 -150 -141 -170 -151 -247 -117 -61 28 -86 69 -86 146 l0 59 128 130 c70 71 145 142 166 158 47 35 105 39 153 9z m-3483 -373 c66 -38 93 -120 63 -190 -7 -16 -95 -111 -197 -213 -197 -197 -226 -216 -287 -193 -86 32 -125 127 -88 215 17 42 346 371 390 390 43 19 75 17 119 -9z m-1335 -175 c38 -28 56 -70 55 -128 -2 -69 -17 -93 -131 -210 -110 -113 -126 -124 -178 -124 -102 0 -177 104 -144 203 17 50 230 272 269 280 43 9 102 -1 129 -21z m2948 -35 c12 -7 34 -28 48 -47 32 -43 34 -119 5 -167 -11 -18 -126 -139 -256 -268 -272 -269 -287 -279 -373 -235 -27 13 -46 33 -60 63 -47 98 -31 125 245 398 126 125 245 236 264 248 39 23 93 27 127 8z m1180 -107 c18 -10 39 -33 48 -50 20 -38 22 -109 4 -142 -8 -15 -80 -90 -161 -167 l-147 -141 -48 0 c-128 0 -195 130 -124 241 15 25 50 63 76 85 27 21 73 65 104 98 31 32 72 66 91 77 47 24 116 24 157 -1z m-3517 -419 c19 -10 45 -36 57 -57 51 -88 24 -144 -154 -326 -156 -158 -209 -198 -263 -198 -70 0 -140 74 -140 148 0 57 16 79 186 254 193 199 234 222 314 179z m-1211 -61 c47 -23 71 -70 71 -138 0 -43 -6 -56 -49 -113 -61 -80 -189 -205 -218 -213 -64 -19 -165 54 -179 129 -13 72 8 110 135 238 113 113 118 117 159 117 24 0 60 -9 81 -20z m4006 -179 c61 -28 87 -62 93 -120 2 -28 2 -61 -2 -75 -7 -29 -280 -304 -314 -317 -68 -26 -154 5 -190 69 -27 49 -28 97 -2 140 29 47 279 291 315 308 40 18 53 17 100 -5z m-1355 -159 c56 -41 77 -134 42 -191 -28 -46 -447 -468 -484 -487 -74 -38 -156 -10 -196 68 -41 80 -32 98 142 277 217 224 328 328 367 346 41 18 93 13 129 -13z m-3199 -274 c42 -24 79 -85 79 -132 0 -41 -33 -97 -107 -183 -106 -122 -120 -133 -178 -133 -126 0 -199 176 -109 261 14 13 48 52 75 86 57 71 130 123 172 123 16 0 47 -10 68 -22z m1086 -56 c60 -43 81 -137 44 -198 -11 -18 -93 -107 -183 -198 -154 -157 -165 -166 -201 -166 -61 0 -102 23 -131 72 -58 100 -44 124 237 410 l109 110 48 -4 c26 -3 61 -14 77 -26z m2787 -196 c55 -23 86 -73 86 -140 l0 -56 -125 -132 c-152 -160 -183 -183 -240 -182 -91 2 -164 88 -151 177 6 38 20 56 134 169 181 179 214 198 296 164z m-4427 -340 c34 -16 57 -35 67 -55 21 -40 20 -110 -1 -141 -33 -49 -197 -221 -228 -240 -58 -36 -131 -22 -184 34 -31 33 -40 110 -18 153 22 41 215 239 252 258 40 20 51 19 112 -9z m2873 -22 c60 -51 76 -120 43 -181 -10 -18 -111 -129 -225 -247 -239 -246 -262 -262 -343 -232 -25 10 -54 31 -66 48 -29 40 -36 106 -15 146 9 17 119 135 244 262 l227 230 52 0 c41 0 58 -5 83 -26z m-1905 -128 c39 -17 83 -78 91 -128 9 -56 -16 -95 -155 -240 -107 -112 -139 -139 -167 -144 -94 -18 -174 53 -174 153 l0 54 129 137 c70 75 137 144 147 153 37 32 77 36 129 15z m2806 -179 c65 -43 86 -125 50 -195 -11 -20 -74 -92 -139 -159 -96 -97 -128 -124 -160 -133 -72 -19 -137 12 -172 80 -25 49 -25 96 -1 135 27 43 233 250 272 274 46 28 107 27 150 -2z m-4369 -277 c43 -12 82 -58 93 -107 13 -66 -2 -98 -102 -207 -147 -161 -210 -194 -283 -144 -70 47 -95 116 -69 185 13 36 224 251 264 269 37 16 50 17 97 4z m996 -241 c52 -50 65 -111 34 -161 -11 -17 -126 -140 -255 -272 -128 -133 -258 -268 -288 -300 -76 -83 -124 -116 -168 -115 -129 2 -192 110 -121 207 16 23 128 142 247 265 120 122 242 250 271 283 93 107 157 147 218 136 12 -2 40 -21 62 -43z m1658 -51 c75 -82 52 -159 -91 -308 -50 -52 -128 -135 -174 -185 -104 -114 -149 -145 -208 -145 -86 0 -143 55 -143 140 0 56 9 70 124 190 51 52 130 137 176 189 47 51 105 109 130 128 41 32 49 35 99 30 47 -3 59 -9 87 -39z m1052 -62 c41 -21 69 -57 81 -101 19 -73 3 -103 -132 -239 -67 -68 -133 -129 -146 -136 -105 -54 -246 79 -199 188 15 35 212 242 266 278 39 27 90 31 130 10z m-4277 -282 c31 -16 68 -81 69 -119 0 -59 -23 -94 -137 -212 -98 -100 -125 -123 -161 -133 -47 -12 -73 -7 -115 22 -63 44 -77 133 -32 198 39 56 205 219 245 241 43 23 92 24 131 3z m3684 -343 c46 -26 75 -76 75 -130 0 -25 -4 -52 -9 -59 -4 -7 -59 -67 -122 -134 -164 -174 -222 -193 -315 -103 -37 35 -44 47 -44 81 0 22 8 54 18 72 26 48 235 266 273 285 37 18 78 14 124 -12z m-1315 -136 c66 -34 101 -136 69 -198 -12 -21 -87 -102 -294 -313 -116 -119 -144 -131 -223 -98 -76 32 -110 105 -82 178 11 30 371 400 415 427 36 23 76 24 115 4z m-1798 -131 c56 -29 78 -126 45 -191 -22 -41 -232 -260 -269 -279 -44 -23 -106 -8 -150 36 -48 48 -57 94 -29 152 24 50 231 270 276 293 33 17 80 13 127 -11z m-1169 -46 c38 -27 47 -48 47 -115 0 -69 -22 -111 -77 -147 -21 -14 -56 -28 -78 -31 -53 -9 -102 23 -134 88 -21 43 -22 53 -12 87 15 49 100 137 138 143 41 6 84 -3 116 -25z m3657 -323 c62 -32 91 -137 56 -203 -8 -15 -66 -78 -129 -141 -111 -110 -117 -114 -166 -119 -100 -9 -182 73 -165 166 6 30 32 63 143 175 l136 137 48 0 c26 0 61 -7 77 -15z m-3094 -261 c64 -30 88 -114 55 -189 -28 -64 -182 -222 -229 -235 -49 -13 -89 -2 -126 34 -77 78 -69 147 30 257 126 141 189 171 270 133z m1658 -33 c16 -11 35 -30 42 -43 17 -29 18 -122 2 -151 -25 -49 -320 -362 -360 -383 -61 -32 -141 -10 -176 48 -51 85 -36 136 71 240 41 40 116 118 167 173 51 55 107 108 124 118 40 22 94 22 130 -2z m822 -330 c47 -21 71 -51 80 -98 14 -73 -1 -99 -119 -221 -62 -62 -124 -120 -139 -128 -39 -20 -107 -17 -146 6 -53 33 -76 111 -51 176 15 41 217 243 264 265 50 23 60 23 111 0z m-1536 -429 c33 -24 60 -79 60 -122 0 -44 -27 -88 -100 -165 -31 -33 -79 -84 -106 -113 -81 -89 -154 -113 -221 -72 -34 20 -73 85 -73 120 0 40 43 103 124 184 45 44 90 93 100 108 10 15 39 41 64 58 40 27 53 31 87 25 22 -3 51 -14 65 -23z m921 -172 c78 -22 118 -108 89 -196 -15 -44 -159 -198 -228 -244 -70 -46 -130 -36 -186 30 -21 25 -26 42 -26 84 0 61 5 69 119 195 126 137 153 153 232 131z" fill="#fcfcfc"/>
</g>
</svg>