<?xml version="1.0" standalone="no"?>
<!DOCTYPE svg PUBLIC "-//W3C//DTD SVG 20010904//EN"
 "http://www.w3.org/TR/2001/REC-SVG-20010904/DTD/svg10.dtd">
<svg version="1.0" xmlns="http://www.w3.org/2000/svg"
 width="2048.000000pt" height="2048.000000pt" viewBox="0 0 2048.000000 2048.000000"
 preserveAspectRatio="xMidYMid meet">

<g transform="translate(0.000000,2048.000000) scale(0.100000,-0.100000)"
fill="#000000" stroke="none">
<path d="M5975 17366 c-147 -25 -254 -84 -364 -202 -79 -84 -120 -160 -150
-278 -26 -97 -27 -211 -6 -497 20 -286 32 -463 55 -859 11 -190 22 -370 25
-400 3 -30 19 -255 35 -500 17 -245 41 -602 55 -795 32 -450 32 -492 3 -535
-44 -64 -129 -59 -173 10 -17 26 -29 70 -40 141 -19 127 -74 467 -153 944 -33
198 -74 448 -91 555 -18 107 -38 229 -46 270 -7 41 -35 208 -60 370 -59 375
-86 502 -123 582 -50 107 -158 231 -250 285 -213 125 -462 135 -690 27 -56
-27 -94 -55 -152 -113 -43 -43 -86 -93 -95 -112 -10 -19 -21 -36 -24 -39 -18
-13 -62 -139 -76 -215 -19 -99 -17 -131 27 -415 16 -107 38 -251 48 -320 37
-249 60 -403 94 -612 20 -117 53 -339 76 -493 22 -154 54 -359 70 -455 34
-201 99 -617 129 -830 31 -216 49 -336 66 -425 8 -44 19 -109 24 -145 5 -36
17 -112 26 -170 9 -58 20 -132 25 -165 12 -88 46 -316 76 -507 25 -159 25
-169 10 -220 -9 -29 -24 -63 -34 -75 -33 -38 -92 -63 -150 -63 -53 0 -93 17
-237 105 -22 13 -71 42 -110 64 -115 66 -130 76 -133 84 -2 4 -8 7 -13 7 -5 0
-33 15 -62 34 -75 48 -240 148 -284 171 -20 11 -42 24 -48 28 -11 9 -150 89
-205 118 -19 11 -42 23 -50 28 -209 126 -291 169 -400 207 -188 65 -427 73
-552 18 -30 -14 -40 -26 -57 -73 -70 -192 -37 -494 77 -701 87 -159 185 -269
398 -451 87 -74 190 -163 229 -199 39 -36 129 -114 200 -175 122 -104 232
-200 474 -414 58 -52 169 -148 246 -215 77 -66 160 -139 185 -162 25 -23 128
-113 230 -200 243 -207 461 -396 531 -459 30 -27 99 -88 153 -135 350 -304
530 -479 631 -615 17 -22 35 -46 42 -53 57 -60 204 -325 272 -490 62 -150 143
-481 133 -539 -2 -7 6 -17 17 -23 14 -7 612 -9 1973 -8 l1953 3 2 110 c4 173
23 453 43 655 47 448 111 1003 155 1325 18 139 19 185 1 199 -8 6 -90 101
-182 211 -92 110 -199 236 -237 280 -118 135 -300 348 -337 392 -19 23 -80 94
-135 158 -55 64 -120 139 -144 168 -24 29 -62 72 -85 97 -51 54 -170 215 -214
288 -40 66 -82 170 -119 294 -25 85 -27 107 -27 258 0 127 4 180 17 230 74
269 150 398 352 595 96 94 114 116 119 150 4 22 16 78 28 125 94 388 255 727
527 1110 41 58 78 107 81 110 3 3 41 52 85 110 43 58 91 121 107 140 327 408
407 513 435 570 14 28 33 278 33 425 0 136 -26 245 -82 349 -29 53 -42 70
-119 147 -82 83 -213 151 -329 169 -135 22 -308 -3 -425 -63 -105 -53 -212
-162 -263 -269 -62 -130 -74 -215 -137 -978 -32 -401 -65 -799 -75 -910 -6
-63 -15 -162 -20 -220 -11 -130 -23 -173 -57 -200 -51 -40 -123 -20 -164 47
-20 32 -21 43 -15 156 3 67 10 241 16 387 12 292 32 791 55 1375 9 209 22 508
29 665 16 323 16 741 0 761 -6 8 -19 37 -29 64 -55 148 -176 280 -320 349
-101 48 -182 66 -304 66 -283 0 -515 -149 -609 -390 -53 -137 -56 -177 -82
-925 -19 -555 -30 -888 -45 -1275 -8 -212 -17 -479 -20 -595 -8 -316 -12 -350
-42 -385 -21 -26 -32 -30 -75 -30 -102 0 -117 29 -129 239 -11 209 -27 482
-39 671 -6 85 -17 265 -25 400 -23 355 -33 509 -49 745 -9 116 -24 341 -35
500 -11 160 -25 358 -31 440 -6 83 -15 224 -20 315 -9 161 -14 184 -61 310
-62 167 -235 321 -417 372 -88 24 -246 31 -347 14z m-1257 -4842 c21 -8 155
-74 300 -146 275 -137 312 -163 312 -219 0 -43 -23 -92 -53 -112 -49 -32 -103
-22 -218 39 -130 70 -291 151 -390 197 -112 51 -148 110 -115 189 28 66 88 85
164 52z m1005 -533 c26 -10 200 -123 327 -213 161 -113 200 -156 200 -218 0
-66 -47 -110 -116 -110 -44 0 -80 18 -169 85 -38 28 -101 74 -140 101 -38 27
-83 59 -100 71 -16 12 -45 30 -63 39 -19 9 -49 32 -68 50 -31 29 -34 37 -33
83 2 40 8 55 28 75 43 42 89 54 134 37z m-961 -362 c35 -16 70 -34 78 -39 8
-6 30 -17 49 -25 19 -8 58 -36 87 -60 40 -35 54 -53 59 -83 9 -53 -15 -105
-59 -126 -62 -29 -81 -23 -251 84 -148 93 -154 99 -153 175 0 68 3 76 33 93
35 20 92 13 157 -19z m1926 -336 c42 -32 108 -87 147 -123 39 -36 108 -97 152
-137 95 -85 116 -121 103 -178 -10 -47 -36 -71 -92 -85 -34 -10 -46 -8 -85 11
-25 12 -67 42 -92 67 -60 59 -212 194 -288 257 -77 63 -95 99 -84 160 10 54
33 82 75 94 46 12 81 -2 164 -66z m-1276 -103 c59 -31 188 -132 283 -221 33
-31 79 -73 103 -94 59 -52 75 -86 66 -138 -10 -63 -52 -97 -118 -97 -47 1 -55
4 -106 51 -30 27 -132 115 -227 195 -147 123 -173 150 -179 179 -9 48 21 105
66 127 45 23 67 23 112 -2z m2014 -579 c17 -10 113 -106 213 -211 200 -213
215 -237 188 -303 -19 -45 -69 -77 -121 -77 -36 0 -46 7 -135 98 -151 154
-315 332 -325 352 -5 10 -5 39 -2 64 13 85 105 124 182 77z m-1226 -132 c36
-21 146 -137 314 -333 73 -85 76 -91 76 -139 0 -44 -4 -53 -36 -83 -26 -25
-44 -34 -70 -34 -52 0 -82 20 -154 102 -36 40 -98 108 -138 152 -158 169 -188
224 -158 288 17 36 64 66 105 67 13 1 40 -9 61 -20z m1946 -638 c28 -17 124
-125 272 -305 107 -131 122 -167 92 -234 -20 -43 -36 -56 -89 -66 -60 -11 -90
14 -251 207 -186 224 -210 263 -199 320 15 84 102 123 175 78z m-1246 -178
c42 -48 142 -181 228 -305 57 -83 62 -95 62 -143 0 -43 -5 -57 -26 -79 -15
-14 -44 -31 -66 -36 -33 -10 -44 -8 -71 9 -18 11 -48 43 -67 71 -19 28 -53 74
-75 103 -114 148 -188 264 -193 300 -10 75 48 132 128 124 36 -4 51 -12 80
-44z m1896 -619 c36 -17 68 -57 317 -392 57 -78 74 -130 53 -169 -23 -46 -52
-66 -106 -71 -48 -4 -51 -3 -93 39 -46 48 -226 283 -300 393 -53 78 -60 117
-25 161 22 28 70 54 101 55 11 0 34 -7 53 -16z m-1353 -159 c24 -11 65 -64
157 -202 167 -250 177 -274 146 -348 -26 -62 -117 -86 -170 -44 -14 11 -53 62
-86 112 -32 51 -73 115 -91 142 -83 128 -129 210 -129 233 0 40 29 88 63 105
41 20 71 21 110 2z m2018 -724 c48 -48 49 -49 49 -112 0 -73 -29 -279 -40
-279 -12 0 -47 44 -126 160 -73 107 -78 118 -79 168 0 48 3 57 33 83 25 22 42
29 74 29 36 0 47 -6 89 -49z m-1450 -128 c24 -24 204 -323 240 -398 16 -33 29
-77 29 -97 0 -70 -73 -122 -146 -104 -40 10 -73 52 -144 178 -35 62 -89 154
-119 203 -46 77 -54 97 -53 135 2 54 27 91 72 106 40 13 96 3 121 -23z"/>
<path d="M14245 17374 c-126 -18 -230 -58 -340 -129 -161 -106 -277 -293 -305
-493 -5 -39 -10 -829 -11 -1882 -1 -998 -6 -1828 -10 -1844 -14 -50 -57 -86
-102 -86 -77 0 -104 36 -117 153 -9 81 -12 119 -50 602 -11 138 -22 261 -25
275 -2 14 -11 106 -20 205 -8 99 -20 221 -25 270 -5 50 -21 236 -35 415 -52
665 -66 831 -90 1061 -21 202 -29 249 -56 323 -74 204 -236 366 -437 437 -139
48 -402 48 -517 -2 -11 -4 -46 -19 -78 -33 -135 -58 -271 -199 -344 -356 -50
-108 -64 -178 -64 -320 0 -136 3 -175 41 -595 28 -312 28 -313 51 -625 11
-151 29 -383 39 -515 11 -132 31 -397 45 -590 14 -192 32 -420 40 -505 15
-157 19 -206 55 -725 11 -159 25 -351 30 -425 14 -192 12 -411 -4 -510 -23
-137 -46 -186 -123 -261 -81 -78 -102 -92 -173 -113 -109 -33 -227 -9 -340 68
-55 37 -39 24 -190 148 -69 57 -142 116 -162 133 -21 16 -145 122 -275 235
-131 113 -254 219 -274 235 -21 17 -90 75 -155 130 -175 148 -222 183 -284
211 -30 14 -68 32 -85 40 -71 35 -189 57 -310 58 -251 2 -456 -87 -626 -272
-182 -199 -263 -477 -214 -742 41 -229 97 -319 426 -691 52 -58 128 -148 169
-199 41 -52 98 -119 125 -150 28 -31 95 -110 150 -175 173 -205 394 -464 544
-638 81 -92 173 -199 206 -237 33 -38 114 -131 180 -206 66 -76 163 -187 215
-249 185 -217 316 -370 420 -489 323 -371 416 -526 489 -821 30 -123 61 -283
61 -320 0 -23 5 -35 18 -39 20 -6 448 -58 667 -81 83 -9 206 -22 275 -30 410
-47 908 -68 1620 -69 626 -1 953 3 1180 15 180 10 572 44 745 64 416 50 640
77 707 87 l77 11 5 41 c3 23 12 106 21 186 40 354 115 711 195 925 4 11 24 70
43 130 66 205 191 562 221 630 29 66 39 90 40 95 5 20 41 107 48 114 4 6 8 17
8 26 0 9 11 38 24 66 13 27 31 69 41 94 9 25 22 56 28 70 5 14 11 30 13 35 16
53 60 161 66 163 4 2 8 10 8 17 0 7 14 46 31 86 34 82 66 164 98 254 12 33 30
76 40 95 10 19 27 60 37 90 10 30 21 57 24 60 3 3 11 23 18 45 7 22 19 56 27
75 8 19 30 79 49 132 20 54 40 106 45 115 4 10 30 86 56 168 27 83 51 159 56
170 7 20 55 191 64 230 2 11 11 49 20 85 55 223 163 852 180 1045 7 82 68 626
90 800 33 263 123 1119 134 1270 11 145 -4 260 -50 374 -39 99 -66 138 -152
225 -81 82 -164 131 -298 177 -229 77 -546 2 -711 -168 -97 -100 -113 -121
-151 -203 -61 -133 -76 -203 -117 -565 -23 -204 -41 -354 -50 -420 -6 -38 -19
-144 -30 -235 -12 -91 -25 -196 -30 -235 -5 -38 -14 -104 -19 -145 -6 -41 -20
-142 -31 -225 -12 -82 -29 -224 -39 -315 -10 -91 -23 -175 -29 -185 -51 -95
-157 -90 -206 10 -19 37 -19 43 -3 169 23 175 66 615 87 866 5 69 14 172 20
230 6 58 22 229 35 380 14 151 30 309 35 350 6 41 26 251 46 465 19 215 39
435 44 490 28 294 32 366 28 468 -6 160 -35 256 -110 368 -68 102 -123 153
-233 218 -135 79 -246 111 -392 111 -209 0 -410 -75 -535 -201 -68 -68 -147
-220 -177 -339 -23 -92 -30 -148 -61 -475 -11 -121 -25 -258 -30 -305 -35
-299 -90 -846 -145 -1455 -9 -93 -27 -271 -40 -395 -13 -124 -29 -274 -35
-335 -15 -149 -18 -158 -50 -194 -24 -25 -37 -31 -70 -31 -34 0 -48 6 -76 34
l-34 34 0 584 c0 949 -10 2985 -15 3098 -5 116 -14 159 -51 238 -13 29 -24 56
-24 61 0 18 -99 158 -136 192 -102 94 -233 167 -349 194 -70 16 -224 27 -280
19z m508 -505 c38 -29 52 -88 33 -134 -19 -44 -745 -778 -793 -800 -60 -29
-133 10 -148 78 -18 76 -15 80 343 441 381 382 405 406 435 423 35 20 101 16
130 -8z m-2005 -668 c64 -33 81 -105 39 -173 -33 -55 -682 -713 -721 -732 -29
-14 -40 -14 -72 -4 -70 24 -106 117 -68 177 27 42 683 710 719 733 38 23 57
23 103 -1z m4024 -160 c42 -47 39 -107 -8 -169 -37 -49 -502 -521 -706 -719
-104 -100 -122 -113 -152 -113 -74 0 -115 41 -118 119 l-2 51 86 88 c47 48
241 244 430 436 l345 349 49 -6 c38 -4 54 -12 76 -36z m-1992 -266 c64 -33 81
-113 35 -174 -23 -32 -469 -492 -687 -709 -131 -130 -140 -136 -186 -127 -54
10 -80 30 -93 75 -22 71 -4 103 137 247 360 368 672 678 694 690 33 17 64 16
100 -2z m-1905 -619 c64 -27 86 -111 44 -170 -29 -41 -181 -200 -522 -543
-266 -270 -282 -281 -343 -251 -16 7 -39 29 -52 48 -19 28 -22 42 -16 75 3 22
9 45 13 52 3 6 170 178 370 382 201 204 367 375 371 380 8 14 62 41 83 41 10
0 33 -6 52 -14z m5466 -459 c37 -25 60 -84 52 -133 -4 -21 -92 -116 -338 -364
-182 -184 -354 -359 -381 -388 -58 -64 -89 -82 -143 -82 -31 0 -49 7 -73 29
-29 26 -33 36 -33 78 0 39 6 56 29 84 59 71 770 781 790 789 35 15 62 11 97
-13z m-1693 -203 c31 -21 52 -66 52 -109 0 -33 -14 -50 -158 -198 -400 -411
-739 -750 -765 -763 -38 -20 -88 -9 -126 28 -27 26 -31 38 -31 81 l0 51 174
175 c96 97 297 300 448 452 150 152 282 281 293 287 29 16 87 14 113 -4z
m-1868 -77 c55 -44 72 -102 47 -159 -18 -42 -796 -829 -835 -845 -42 -18 -106
-2 -127 31 -23 35 -29 87 -13 123 7 17 155 177 329 355 174 177 327 334 340
348 14 14 56 55 96 93 63 59 76 67 110 67 21 0 45 -6 53 -13z m-1819 -342 c37
-20 69 -70 69 -111 0 -46 -36 -93 -200 -259 -82 -82 -249 -252 -372 -377 -223
-227 -225 -228 -267 -228 -36 0 -49 6 -77 34 -29 29 -34 41 -34 83 0 57 10 73
106 168 38 39 205 209 371 378 326 334 340 345 404 312z m3515 -1071 c19 -9
41 -29 49 -45 18 -34 19 -96 2 -127 -19 -33 -457 -471 -489 -488 -56 -29 -109
-13 -153 46 -27 37 -31 72 -12 108 22 39 470 486 507 504 42 22 53 22 96 2z
m1746 -215 c30 -22 46 -87 33 -136 -4 -17 -86 -107 -218 -240 l-212 -213 -49
0 c-43 0 -53 4 -87 39 -47 47 -52 95 -17 147 34 49 401 412 429 423 32 13 86
4 121 -20z m-5102 -24 c16 -8 36 -25 44 -37 19 -26 21 -90 5 -121 -6 -12 -76
-87 -155 -167 -78 -80 -259 -263 -401 -407 -225 -229 -263 -263 -296 -269 -91
-16 -152 57 -125 152 7 28 66 94 262 293 139 141 306 311 372 377 196 200 222
216 294 179z m1849 -51 c39 -33 49 -82 27 -132 -19 -42 -125 -158 -173 -191
-38 -26 -108 -28 -142 -5 -32 23 -52 75 -44 116 7 37 114 162 178 208 53 39
111 40 154 4z m-543 -500 c62 -30 84 -116 44 -178 -11 -17 -102 -113 -203
-213 l-183 -183 -48 0 c-41 0 -53 5 -82 34 -30 30 -34 40 -34 88 l0 53 193
196 c105 108 201 201 212 207 28 16 61 15 101 -4z m1232 -40 c33 -23 52 -67
52 -120 l0 -48 -259 -259 -260 -260 -50 5 c-58 6 -87 26 -108 76 -31 73 -22
86 241 346 132 131 255 247 271 257 37 23 83 24 113 3z m1796 -137 c30 -25 48
-84 39 -130 -7 -37 -421 -453 -471 -474 -99 -41 -200 78 -143 169 32 52 423
435 459 451 41 17 81 11 116 -16z m-7375 -203 c41 -34 57 -89 39 -131 -12 -30
-643 -681 -719 -743 -45 -36 -81 -43 -124 -26 -74 31 -100 125 -51 183 67 77
710 710 738 726 45 24 81 21 117 -9z m3632 -350 c14 -7 31 -19 38 -27 19 -24
24 -80 9 -114 -15 -36 -356 -394 -404 -423 -55 -35 -132 -19 -168 32 -20 28
-21 90 -2 126 24 44 387 400 426 416 36 15 55 13 101 -10z m-3077 -114 c7 0
27 -14 45 -30 25 -25 31 -38 31 -73 0 -23 -6 -52 -14 -63 -8 -11 -200 -208
-426 -437 -303 -306 -419 -417 -440 -422 -42 -9 -100 21 -124 65 -40 75 -45
68 397 515 389 395 466 463 505 450 8 -3 19 -5 26 -5z m4191 -44 c45 -35 63
-101 41 -148 -9 -19 -155 -172 -324 -341 -294 -293 -310 -307 -346 -307 -67 0
-119 44 -126 105 -8 68 -9 67 293 371 160 163 308 307 327 320 46 30 95 30
135 0z m1821 -52 c19 -9 41 -26 49 -38 19 -26 19 -99 1 -134 -17 -32 -441
-455 -473 -471 -25 -13 -90 -6 -114 12 -23 18 -47 59 -50 87 -7 64 8 83 244
317 254 253 268 262 343 227z m1279 -4 c21 -13 36 -33 43 -58 19 -62 6 -97
-65 -169 -21 -22 -73 -77 -116 -125 -97 -106 -127 -124 -182 -109 -22 6 -50
20 -62 30 -31 26 -44 89 -27 129 14 34 277 300 309 313 34 13 66 10 100 -11z
m-6664 -416 c27 -28 33 -42 32 -74 -1 -21 -8 -51 -16 -67 -9 -15 -214 -225
-456 -465 -368 -364 -448 -438 -476 -444 -80 -15 -135 27 -135 103 0 26 7 57
15 68 27 35 817 829 868 872 74 61 114 63 168 7z m1700 -107 c50 -33 63 -64
55 -122 -8 -47 -15 -56 -209 -252 l-202 -203 -45 0 c-25 0 -55 3 -67 6 -33 9
-63 64 -63 114 0 39 6 48 86 133 147 156 317 318 349 332 43 19 58 18 96 -8z
m4321 -87 c53 -15 78 -51 78 -112 0 -47 -3 -52 -69 -121 -141 -148 -347 -353
-386 -384 -101 -82 -220 -1 -186 125 10 36 43 74 227 255 181 178 261 245 294
247 3 0 22 -5 42 -10z m-1431 -193 c58 -39 77 -111 42 -163 -22 -35 -480 -487
-501 -496 -59 -23 -132 9 -157 69 -31 73 -25 81 238 347 133 135 253 249 267
255 41 16 75 12 111 -12z m-2008 -78 c63 -32 91 -101 68 -162 -6 -15 -136
-154 -290 -309 l-279 -281 -47 6 c-26 4 -60 16 -76 27 -33 24 -53 84 -43 127
8 30 473 508 554 569 47 35 77 41 113 23z m-1625 -368 c45 -23 62 -55 62 -115
0 -51 -3 -55 -248 -303 -88 -90 -173 -168 -188 -173 -15 -6 -45 -8 -66 -5 -70
12 -116 100 -85 162 24 45 406 426 441 440 42 16 42 16 84 -6z m4292 -173 c41
-28 57 -77 41 -128 -8 -25 -67 -92 -204 -231 -218 -222 -250 -249 -296 -249
-92 0 -153 108 -103 180 22 32 399 409 432 433 34 24 90 22 130 -5z m-1488
-209 c39 -28 61 -81 52 -123 -10 -46 -1605 -1633 -1650 -1642 -43 -8 -99 18
-118 55 -9 16 -16 49 -16 73 l0 43 792 792 c436 436 807 799 823 807 42 22 82
20 117 -5z m-2034 -156 c17 -13 33 -34 33 -46 3 -41 -2 -101 -10 -114 -8 -15
-373 -384 -414 -419 -50 -42 -132 -29 -167 28 -23 39 -26 88 -6 126 20 37 414
426 451 445 36 19 69 13 113 -20z m-1484 -245 c35 -37 38 -43 33 -84 -4 -36
-15 -56 -66 -113 -88 -99 -239 -241 -269 -252 -105 -40 -192 80 -131 180 25
42 286 300 314 311 36 14 79 -1 119 -42z m4223 -158 c17 -10 37 -29 44 -41 15
-28 14 -91 -2 -121 -17 -32 -398 -416 -431 -433 -49 -27 -96 -19 -133 20 -41
43 -51 82 -32 126 20 47 401 427 452 450 51 23 63 23 102 -1z m-3511 -358 c32
-25 44 -55 44 -106 0 -43 -4 -49 -92 -143 -158 -166 -340 -347 -367 -365 -83
-56 -194 27 -175 130 6 31 40 71 218 251 116 117 225 222 241 232 38 24 103
24 131 1z m4713 -193 c26 -25 35 -59 26 -106 -5 -30 -46 -76 -256 -288 -138
-139 -257 -261 -264 -273 -21 -30 -78 -62 -109 -62 -35 0 -81 24 -100 52 -18
25 -21 84 -7 120 7 19 474 497 549 562 45 39 116 37 161 -5z m-1986 -210 c53
-29 77 -93 58 -151 -8 -21 -87 -110 -224 -250 -187 -190 -217 -217 -252 -224
-30 -5 -47 -2 -74 12 -44 23 -61 55 -61 114 l0 45 216 219 c119 120 228 225
243 232 32 17 65 18 94 3z m-1843 -617 c37 -37 48 -93 27 -136 -22 -45 -242
-272 -294 -303 -34 -19 -52 -24 -80 -20 -77 13 -126 105 -92 169 12 23 205
218 277 281 36 31 51 37 88 37 37 0 51 -6 74 -28z m2898 -62 c18 -11 40 -36
48 -56 27 -64 13 -91 -114 -225 -117 -122 -155 -149 -211 -149 -69 0 -126 95
-97 162 16 39 221 251 262 273 39 20 73 19 112 -5z m-1817 -97 c31 -18 59 -67
59 -102 0 -44 -30 -88 -113 -168 -65 -62 -94 -83 -123 -89 -74 -14 -134 45
-134 130 0 30 12 47 83 122 119 126 162 146 228 107z"/>
<path d="M3374 15776 c-10 -13 -65 -73 -121 -133 -194 -207 -394 -448 -509
-613 -63 -89 -185 -268 -199 -291 -5 -10 -54 -88 -108 -175 -147 -237 -219
-365 -317 -564 -78 -156 -76 -152 -169 -373 -86 -203 -136 -344 -216 -607 -33
-111 -107 -458 -120 -565 -4 -27 -13 -95 -21 -150 -8 -55 -14 -148 -12 -208
l3 -107 55 39 c146 103 295 172 440 202 90 19 343 16 439 -5 104 -23 213 -62
312 -112 47 -24 89 -44 92 -44 4 0 37 -18 73 -40 36 -22 68 -40 70 -40 2 0 28
-16 58 -35 30 -19 57 -32 59 -27 3 4 13 35 22 70 10 34 22 65 26 68 5 3 9 13
9 22 0 9 7 30 15 46 8 15 15 33 15 40 0 9 81 174 148 301 14 26 129 202 180
275 24 35 65 81 160 179 77 80 82 88 78 121 -3 19 -16 100 -29 180 -14 80 -28
168 -32 195 -8 65 -58 374 -95 595 -34 204 -78 494 -96 640 -3 25 -21 142 -40
260 -20 118 -44 271 -55 340 -10 69 -32 213 -49 320 -16 107 -30 201 -30 208
0 19 -14 14 -36 -12z"/>
<path d="M11370 15758 c-12 -13 -130 -167 -263 -343 -132 -176 -281 -372 -329
-435 -49 -63 -161 -211 -251 -329 -89 -117 -173 -228 -187 -246 -14 -18 -70
-89 -125 -157 -172 -213 -353 -444 -429 -546 -200 -270 -380 -575 -459 -777
-78 -200 -89 -230 -103 -274 -8 -25 -14 -59 -14 -75 0 -23 3 -27 18 -21 54 22
215 45 310 45 331 -1 517 -90 937 -449 264 -227 265 -227 265 -198 0 6 28 75
63 152 65 146 144 279 243 412 113 151 374 402 503 483 l54 34 -7 105 c-10
159 -35 478 -76 946 -29 332 -57 695 -70 885 -6 91 -18 248 -26 350 -21 264
-32 444 -27 453 9 15 -7 6 -27 -15z"/>
<path d="M1623 11683 c-181 -242 -220 -505 -122 -815 68 -214 171 -336 649
-768 58 -52 152 -140 210 -195 103 -97 204 -191 475 -440 72 -66 198 -183 280
-260 83 -77 211 -196 285 -265 74 -69 188 -176 254 -239 153 -144 195 -179
506 -413 457 -345 637 -558 745 -881 33 -98 75 -282 75 -326 0 -21 1 -21 288
-19 l287 3 -3 50 c-5 84 -32 223 -59 308 -60 193 -241 514 -375 669 -56 64
-248 254 -303 300 -23 18 -61 52 -85 75 -25 23 -58 52 -75 65 -16 12 -43 35
-60 49 -16 15 -106 93 -200 174 -93 81 -199 173 -235 205 -36 31 -159 139
-275 240 -115 100 -277 242 -359 314 -82 72 -165 145 -185 161 -20 17 -58 51
-86 76 -27 25 -84 74 -125 109 -41 35 -104 89 -140 121 -36 31 -119 103 -186
160 -66 57 -174 151 -239 209 -65 58 -139 123 -166 145 -153 129 -398 366
-399 387 0 4 -6 13 -13 20 -51 52 -146 224 -196 353 -56 147 -75 245 -75 398
0 75 -3 137 -7 137 -3 0 -42 -48 -86 -107z"/>
<path d="M11644 6834 c-24 -54 -65 -205 -117 -429 -31 -130 -55 -328 -62 -515
-4 -74 -8 -151 -11 -170 -3 -19 -7 -235 -9 -480 -5 -575 10 -794 71 -1050 81
-336 204 -494 492 -627 128 -59 123 -57 232 -96 324 -118 543 -174 1020 -261
312 -56 927 -92 1400 -82 369 8 580 26 849 72 435 73 757 170 1071 322 165 81
262 146 342 231 61 64 126 167 113 179 -5 5 -254 -26 -425 -54 -253 -40 -416
-5 -557 121 -123 110 -185 244 -197 425 -3 52 -9 376 -12 720 -6 557 -5 635
10 720 47 268 227 464 471 515 76 15 306 51 625 96 79 11 147 22 151 25 4 2 3
21 -1 41 -30 135 -43 188 -67 265 l-26 86 -31 -4 c-17 -2 -114 -15 -216 -29
-245 -32 -331 -41 -610 -65 -990 -82 -1750 -106 -2400 -75 -231 11 -802 45
-915 55 -66 5 -205 17 -310 25 -236 20 -412 39 -624 71 -236 35 -227 36 -257
-32z m1214 -420 c53 -37 65 -107 29 -166 -23 -38 -388 -416 -472 -488 -51 -44
-93 -52 -144 -25 -45 23 -67 116 -40 168 15 29 442 460 493 498 44 33 98 38
134 13z m1325 -68 c18 -7 40 -23 50 -34 26 -29 33 -92 14 -129 -9 -16 -172
-188 -362 -381 -360 -364 -381 -381 -445 -367 -44 10 -90 67 -90 113 1 20 6
47 13 59 7 13 165 178 352 369 228 232 353 352 380 365 48 22 48 22 88 5z
m1472 -20 c68 -29 86 -117 35 -181 -16 -21 -165 -174 -330 -341 -267 -271
-303 -304 -332 -305 -66 -2 -84 3 -110 32 -23 24 -28 39 -28 80 l0 51 132 137
c244 252 520 522 541 531 32 13 53 12 92 -4z m-3641 -767 c50 -39 69 -105 45
-152 -7 -12 -58 -68 -114 -124 -101 -101 -103 -103 -149 -103 -58 0 -81 12
-101 50 -21 40 -19 97 5 135 11 18 64 74 117 124 86 81 101 91 134 91 22 0 47
-8 63 -21z m2678 -226 c45 -41 61 -113 35 -160 -18 -32 -448 -464 -471 -472
-36 -14 -108 5 -133 33 -30 35 -31 98 -2 145 33 54 427 457 461 471 31 13 86
5 110 -17z m-1532 -56 c45 -35 62 -95 41 -149 -5 -13 -46 -61 -92 -108 -46
-47 -140 -143 -209 -214 -69 -70 -133 -132 -143 -137 -10 -6 -35 -11 -57 -12
-78 -3 -138 91 -107 165 14 33 405 437 442 457 27 14 106 13 125 -2z m2423
-461 c64 -26 90 -115 51 -173 -31 -48 -213 -222 -238 -229 -60 -15 -129 35
-142 102 -10 53 9 82 119 191 134 131 144 137 210 109z m-1684 -282 c13 -9 29
-32 37 -50 23 -55 18 -88 -22 -136 -70 -84 -659 -680 -686 -694 -38 -20 -75
-17 -114 7 -44 27 -54 47 -54 105 l0 47 174 176 c96 97 259 263 362 369 l189
192 45 0 c26 0 56 -7 69 -16z m-1532 -27 c34 -19 60 -59 67 -102 6 -35 3 -46
-22 -80 -50 -68 -339 -352 -369 -362 -69 -24 -143 35 -143 113 0 25 6 57 14
72 16 30 330 344 361 361 26 14 65 13 92 -2z m2686 -245 c43 -29 56 -53 57
-105 0 -55 7 -47 -360 -420 -204 -207 -226 -221 -292 -194 -47 20 -71 57 -72
111 -1 39 5 50 55 107 106 121 474 488 504 504 40 20 74 19 108 -3z"/>
<path d="M4843 6790 c-98 -48 -153 -124 -173 -241 -7 -44 -10 -313 -8 -859 3
-790 3 -795 25 -848 42 -103 75 -132 196 -175 l62 -22 1785 -3 c1346 -3 1802
0 1855 9 167 28 277 133 326 310 18 62 25 1381 9 1493 -15 101 -52 175 -122
244 -60 60 -129 97 -207 112 -35 6 -683 10 -1870 10 l-1816 -1 -62 -29z"/>
<path d="M9020 6815 c0 -3 16 -29 35 -58 46 -69 79 -154 100 -252 14 -71 16
-156 14 -720 -4 -814 -6 -856 -49 -959 -18 -43 -48 -101 -66 -128 -19 -28 -34
-52 -34 -55 0 -9 753 6 785 15 35 11 123 55 145 74 31 25 57 74 75 138 17 61
18 120 17 865 -2 857 -3 876 -52 946 -38 52 -107 104 -162 122 -48 15 -103 17
-431 17 -208 0 -377 -2 -377 -5z"/>
<path d="M16990 6234 c-135 -20 -365 -53 -581 -83 -145 -19 -269 -121 -309
-254 -20 -66 -21 -87 -19 -670 3 -788 7 -887 39 -952 30 -62 101 -132 160
-158 60 -27 172 -32 290 -14 52 8 201 32 330 52 129 20 250 43 267 52 75 35
142 112 164 187 5 17 9 355 9 751 0 888 -3 962 -40 1023 -20 32 -87 76 -130
85 -14 2 -95 -6 -180 -19z"/>
<path d="M4983 4308 c8 -111 37 -230 75 -300 31 -58 118 -148 177 -183 23 -13
69 -33 103 -44 l62 -21 1964 0 c1931 0 1965 0 2028 20 111 34 217 124 273 232
43 80 75 218 75 321 l0 67 -2382 0 -2381 0 6 -92z"/>
</g>
</svg>
